<svg id="Слой_1" data-name="Слой 1" xmlns="http://www.w3.org/2000/svg" viewBox="0 0 88.74 80.42"><defs><style>.cls-1{fill:none;stroke:#000;stroke-miterlimit:10;stroke-width:2px;}</style></defs><title>кемпинг</title><path class="cls-1" d="M57.79,44.77c3.64,18.67,9.13,35,16.85,48.39a.62.62,0,0,0,.55.32l24.36,0a.63.63,0,0,0,.55-.93L57.47,15.42a.63.63,0,0,0-1.1,0l-42.85,77a.63.63,0,0,0,.55.94l24.88,0a.63.63,0,0,0,.56-.34c8-14.74,13.45-31,17-48.33A.63.63,0,0,1,57.79,44.77Z" transform="translate(-12.44 -14.09)"/><path d="M15.7,92.41V74a1.5,1.5,0,0,0-3,0V92.41a1.5,1.5,0,0,0,3,0Z" transform="translate(-12.44 -14.09)"/><path d="M100.65,91.92V73.55a1.5,1.5,0,0,0-3,0V91.92a1.5,1.5,0,0,0,3,0Z" transform="translate(-12.44 -14.09)"/></svg>