<svg id="Слой_1" data-name="Слой 1" xmlns="http://www.w3.org/2000/svg" viewBox="0 0 87.36 54.53"><defs><style>.cls-1{fill:none;stroke:#000;stroke-miterlimit:10;stroke-width:2px;}</style></defs><title>коттедж</title><path class="cls-1" d="M55,36.71,41.45,51.51V88.62h9.26v-11A1.69,1.69,0,0,1,52.4,76h4.51a1.79,1.79,0,0,1,1.79,1.8V88.62h9.5V52.06Zm9.26,35.81H56.33V64h7.91ZM53.77,59.18H45.86V51.27h7.91ZM64.24,38.34" transform="translate(-13.02 -35.2)"/><path class="cls-1" d="M29.35,56.53,16.21,68.24l1.58,2.22V88.74H41.37V56.53Zm5,24.45H26.11V72.75h8.23Z" transform="translate(-13.02 -35.2)"/><path class="cls-1" d="M82.76,56.3l-14,11.55V88.74H97.56V71.33L99,69.59Zm10,32.2H72.63V75.92h20.1Z" transform="translate(-13.02 -35.2)"/><path d="M82.94,70.22a1.5,1.5,0,0,0,0-3,1.5,1.5,0,0,0,0,3Z" transform="translate(-13.02 -35.2)"/><line class="cls-1" x1="35.57" y1="53.53" x2="48.47" y2="53.3"/><polyline class="cls-1" points="16.32 21.33 3.19 33.04 0.72 35.6"/><line class="cls-1" x1="51.22" y1="4.2" x2="51.22" y2="12.26"/></svg>