<svg id="Слой_1" data-name="Слой 1" xmlns="http://www.w3.org/2000/svg" viewBox="0 0 61.01 66.48"><defs><style>.cls-1{fill:none;stroke:#000;stroke-miterlimit:10;stroke-width:2px;}</style></defs><title>большие кухни</title><rect class="cls-1" x="10.84" y="50.16" width="39.32" height="15.32"/><path class="cls-1" d="M53.74,25.47s-8.68-.64-12.25,8.93c0,0-13.4-4.85-17,10.22,0,0-2.55,9.32,8,13.15L32.3,70.53l3.83,4.09" transform="translate(-23.24 -24.46)"/><path class="cls-1" d="M53.74,25.47S62.43,24.83,66,34.4c0,0,13.4-4.85,17,10.22,0,0,2.55,9.32-8,13.15l.25,12.76-3.83,4.09" transform="translate(-23.24 -24.46)"/><path class="cls-1" d="M67.51,56.05s-3.32.64-4.34,18" transform="translate(-23.24 -24.46)"/><path class="cls-1" d="M39.8,56.05s3.32.64,4.34,18" transform="translate(-23.24 -24.46)"/><line class="cls-1" x1="30.5" y1="32.23" x2="30.5" y2="50.16"/></svg>