<svg id="Слой_1" data-name="Слой 1" xmlns="http://www.w3.org/2000/svg" viewBox="0 0 73.89 77.34"><defs><style>.cls-1{fill:none;stroke:#000;stroke-miterlimit:10;stroke-width:2px;}</style></defs><title>игры</title><path class="cls-1" d="M70.39,43.42A25.09,25.09,0,1,0,95.47,68.51,25.09,25.09,0,0,0,70.39,43.42Zm4.55,25.15a4.19,4.19,0,1,1,4.19-4.19A4.19,4.19,0,0,1,74.94,68.57Zm.52-10.85a4.19,4.19,0,1,1,4.18-4.19A4.18,4.18,0,0,1,75.46,57.72Zm9.19,5.49A4.19,4.19,0,1,1,88.84,59,4.19,4.19,0,0,1,84.65,63.21Z" transform="translate(-22.58 -18.02)"/><path class="cls-1" d="M50.16,44.7s-22.22,20.17-.9,46.85c0,0,.64,2.94-4,2.81s-14.55,0-14.55,0a3.29,3.29,0,0,1-2.17-2.17s-6-28.73-4.85-39.32c0,0,.13-6.77,7.79-11.62l-.13-4H46.84l.25,2.94S51.16,43.68,50.16,44.7Z" transform="translate(-22.58 -18.02)"/><path class="cls-1" d="M31.39,31.89H46.54v-6s-7.24-15.4-15.15-.21Z" transform="translate(-22.58 -18.02)"/></svg>