<svg id="Слой_1" data-name="Слой 1" xmlns="http://www.w3.org/2000/svg" viewBox="0 0 45.02 67.28"><defs><style>.cls-1,.cls-3{fill:none;}.cls-1,.cls-2,.cls-3{stroke:#000;stroke-miterlimit:10;}.cls-1{stroke-width:2px;}</style></defs><title>гольф</title><circle class="cls-1" cx="22.51" cy="22.51" r="21.51"/><path d="M55.45,49.29a1.5,1.5,0,0,0,0-3,1.5,1.5,0,0,0,0,3Z" transform="translate(-33.99 -24.24)"/><path d="M48.3,54.05a1.5,1.5,0,0,0,0-3,1.5,1.5,0,0,0,0,3Z" transform="translate(-33.99 -24.24)"/><path d="M55.62,59.16a1.5,1.5,0,0,0,0-3,1.5,1.5,0,0,0,0,3Z" transform="translate(-33.99 -24.24)"/><path d="M62.6,54.05a1.5,1.5,0,0,0,0-3,1.5,1.5,0,0,0,0,3Z" transform="translate(-33.99 -24.24)"/><polygon class="cls-2" points="10.73 50.35 34.4 50.35 34.4 52.23 24.52 56.4 24.52 66.78 21.46 66.78 21.46 56.4 10.73 52.56 10.73 50.35"/><path class="cls-3" d="M25.15,74.6" transform="translate(-33.99 -24.24)"/></svg>