<svg id="Слой_1" data-name="Слой 1" xmlns="http://www.w3.org/2000/svg" viewBox="0 0 56.3 63.18"><defs><style>.cls-1{fill:none;stroke:#000;stroke-miterlimit:10;stroke-width:2px;}</style></defs><title>дом у озера</title><path class="cls-1" d="M30.6,66.17V82s0,8.17,8.85,8.17H75.7s9.19,1,9.19-7.32V66.17" transform="translate(-29.6 -28.03)"/><path class="cls-1" d="M30.6,76.89c.74,1.55,1.86,3.27,3.4,3.41,2.75.24,3.9-4.87,7.15-5.11s4.62,5.19,8.17,5.11,4.24-5.42,7.83-5.62c3.78-.21,5.13,5.6,9,5.45s5.18-5.64,8.17-5.11c2.27.41,2.45,3.77,5.11,4.43,2,.5,4.12-.92,5.44-2" transform="translate(-29.6 -28.03)"/><path class="cls-1" d="M30.6,67.44c.74,1.54,1.86,3.27,3.4,3.41,2.75.23,3.9-4.88,7.15-5.11s4.62,5.19,8.17,5.11,4.24-5.42,7.83-5.62c3.78-.22,5.13,5.59,9,5.44s5.18-5.64,8.17-5.1c2.27.41,2.45,3.76,5.11,4.42,2,.51,4.12-.92,5.44-2" transform="translate(-29.6 -28.03)"/><line class="cls-1" x1="11.55" y1="2.57" x2="11.55" y2="37.71"/><path class="cls-1" d="M30.6,53.06s7.49-.34,10.55-7.15c0,0,3.57,9,10.72,7.15" transform="translate(-29.6 -28.03)"/><path class="cls-1" d="M30.6,37.74s7.49-.34,10.55-7.14c0,0,3.57,9,10.72,7.14" transform="translate(-29.6 -28.03)"/><circle class="cls-1" cx="43.52" cy="18.35" r="6.94"/></svg>