<svg id="Слой_1" data-name="Слой 1" xmlns="http://www.w3.org/2000/svg" viewBox="0 0 77.23 66.7"><defs><style>.cls-1{fill:none;stroke:#000;stroke-miterlimit:10;stroke-width:2px;}</style></defs><title>особняки</title><polygon class="cls-1" points="1 8 1 65.7 76.23 65.7 76.23 8.85 1 8"/><line class="cls-1" x1="11.04" x2="11.04" y2="8.11"/><line class="cls-1" x1="65.68" x2="65.68" y2="8.11"/><path class="cls-1" d="M19.21,53.49H39.3V91.62S39,79.87,30.62,77.83c0,0-9.53-2.89-11.41,13.79" transform="translate(-18.21 -25.91)"/><polyline class="cls-1" points="76.23 27.57 56.32 27.57 38.62 8 21.09 27.57"/><path class="cls-1" d="M74.53,53.49l.17,38.13s.51-13.45,9.19-13.45c0,0,8.17.34,10.56,13.45" transform="translate(-18.21 -25.91)"/><path class="cls-1" d="M48.49,91.62V73.91s7.32-13.95,16,0V91.62" transform="translate(-18.21 -25.91)"/><path d="M56.32,55.67a1.5,1.5,0,0,0,0-3,1.5,1.5,0,0,0,0,3Z" transform="translate(-18.21 -25.91)"/></svg>