<svg id="Слой_1" data-name="Слой 1" xmlns="http://www.w3.org/2000/svg" viewBox="0 0 78.51 61.52"><defs><style>.cls-1{fill:none;stroke:#000;stroke-miterlimit:10;stroke-width:2px;}</style></defs><title>пейзаж</title><polygon class="cls-1" points="36.03 60.52 1.68 60.52 22.63 21.71 28.12 25.93 33.1 22.99 36.8 26.05 43.95 21.71 50.2 31.29 36.03 60.52"/><polygon class="cls-1" points="35.83 60.52 76.88 60.52 65.95 39.2 60.59 42.65 56.35 39.97 51.27 42.52 46.93 39.2 35.83 60.52"/><polyline class="cls-1" points="22.63 21.71 33.82 2.1 43.95 21.71"/><polyline class="cls-1" points="46.67 38.77 56.09 22.94 65.95 39.2"/><polyline class="cls-1" points="23.65 34.99 23.67 35.63 24.29 60.52"/><path class="cls-1" d="M33,66.28a21.57,21.57,0,0,0,2.47-2A21.86,21.86,0,0,0,39.68,59a20.09,20.09,0,0,0,4.11,4.81,23,23,0,0,0,2.12,1.57" transform="translate(-16.01 -23.82)"/><path class="cls-1" d="M33.21,74a16.39,16.39,0,0,0,2.58-1.83,16.68,16.68,0,0,0,4.08-5.45,17.47,17.47,0,0,0,6.24,6.39" transform="translate(-16.01 -23.82)"/><circle class="cls-1" cx="50.2" cy="10.79" r="4.79"/></svg>