<svg id="Слой_1" data-name="Слой 1" xmlns="http://www.w3.org/2000/svg" viewBox="0 0 63.93 81.41"><defs><style>.cls-1{fill:none;stroke:#000;stroke-miterlimit:10;stroke-width:2px;}</style></defs><title>сауна</title><path class="cls-1" d="M56.09,58A81.48,81.48,0,0,0,51,70.94a83.11,83.11,0,0,0-3.4,24.76" transform="translate(-23.74 -16.68)"/><path class="cls-1" d="M76.13,92.55a44.4,44.4,0,0,1-28.48,3.68A46.81,46.81,0,0,1,36,92.55c.6-1.44,1.45-3.61,2.3-6.29,2-6.36,1.45-7.56,2.79-11.94,1.08-3.49,3.46-11.25,10.16-14.75A15.7,15.7,0,0,1,56.09,58" transform="translate(-23.74 -16.68)"/><path class="cls-1" d="M56.09,58a82.48,82.48,0,0,1,5.06,12.94,83.11,83.11,0,0,1,3.4,24.76" transform="translate(-23.74 -16.68)"/><path class="cls-1" d="M36,92.55a44.41,44.41,0,0,0,28.48,3.68,46.81,46.81,0,0,0,11.61-3.68c-.6-1.44-1.45-3.61-2.3-6.29-2-6.36-1.44-7.56-2.79-11.94C70,70.83,67.58,63.07,60.88,59.57A15.74,15.74,0,0,0,56.09,58" transform="translate(-23.74 -16.68)"/><path class="cls-1" d="M56.09,58" transform="translate(-23.74 -16.68)"/><ellipse class="cls-1" cx="32.34" cy="37.17" rx="2.12" ry="4.15"/><line class="cls-1" x1="17.06" y1="16.34" x2="22.43" y2="28.73"/><line class="cls-1" x1="33.06" y1="14.04" x2="33.06" y2="28.73"/><line class="cls-1" x1="49.23" y1="16.34" x2="44.13" y2="28.73"/><path class="cls-1" d="M31.36,36.59s-16.47-6.13,2.55-9.32c0,0,.81-17.49,22.18-5.23,0,0,17.9-11.16,16.25,3.57,0,0,23.93-.72,10,9.88" transform="translate(-23.74 -16.68)"/></svg>