<svg id="Слой_1" data-name="Слой 1" xmlns="http://www.w3.org/2000/svg" viewBox="0 0 74.34 59.59"><defs><style>.cls-1{fill:none;stroke:#000;stroke-miterlimit:10;stroke-width:2px;}</style></defs><title>бассейны</title><path class="cls-1" d="M32.64,62.14s1.91-5.31,6-6.71,17.07-5.49,17.07-5.49S48.34,32.83,70,29.26c0,0,6.51,1.91,1.41,7,0,0-8-2.09-9.15,5.81a14.36,14.36,0,0,0-.1,3c0,.24,0,.5.06.76-.08-.4,4.79,9.26,3.06,14,0,0-5.81,2-9.26,6.39C56.06,66.28,44.77,55.89,32.64,62.14Z" transform="translate(-17.51 -28.23)"/><circle class="cls-1" cx="75.06" cy="48.97" r="8.39" transform="translate(-28.48 -4.38) rotate(-16.84)"/><path class="cls-1" d="M90.85,86.6V65c-6.25-10.34-11.74-1.79-15.06.38s-6.51-3.19-6.51-3.19c-5.88-5.49-13.37,4.5-13.37,4.5-.13.33-1-2-1.31-1.22C37.62,50.43,19.36,72,19.36,72Z" transform="translate(-17.51 -28.23)"/><path class="cls-1" d="M27.31,57.36S31,46.71,35.39,50.75,32.82,50,27.31,57.36Z" transform="translate(-17.51 -28.23)"/><path d="M61.78,45.9l.72,1.57.11.22a.72.72,0,0,0,.44.34.78.78,0,0,0,.58-.07.82.82,0,0,0,.35-.45l0-.2a.72.72,0,0,0-.1-.38l-.72-1.56-.11-.22a.73.73,0,0,0-.44-.35.74.74,0,0,0-.58.08.77.77,0,0,0-.35.44l0,.2a.7.7,0,0,0,.1.38Z" transform="translate(-17.51 -28.23)"/><path d="M61.33,46.13l.72,1.56.1.22a.82.82,0,0,0,.45.35.83.83,0,0,0,.58-.08.74.74,0,0,0,.34-.45l0-.2a.75.75,0,0,0-.1-.38l-.73-1.56-.1-.22a.76.76,0,0,0-.45-.35.78.78,0,0,0-.58.08.74.74,0,0,0-.34.45l0,.2a.76.76,0,0,0,.11.38Z" transform="translate(-17.51 -28.23)"/></svg>