<svg id="Слой_1" data-name="Слой 1" xmlns="http://www.w3.org/2000/svg" viewBox="0 0 74.27 64.26"><defs><style>.cls-1{fill:none;stroke:#000;stroke-miterlimit:10;stroke-width:2px;}</style></defs><title>юрта</title><rect class="cls-1" x="2.74" y="53.31" width="69.45" height="9.96" rx="4.98"/><path class="cls-1" d="M24.21,80.77s-9.32-6.51,0-12.26H36.72" transform="translate(-18.28 -27.46)"/><path class="cls-1" d="M24.21,68.51s-11.1-6.58,0-14.72" transform="translate(-18.28 -27.46)"/><path class="cls-1" d="M86.61,80.77s9.32-6.51,0-12.26H74.1" transform="translate(-18.28 -27.46)"/><path class="cls-1" d="M86.61,68.51s11.11-6.58,0-14.72" transform="translate(-18.28 -27.46)"/><path class="cls-1" d="M1.36,56" transform="translate(-18.28 -27.46)"/><polygon class="cls-1" points="1 26.34 73.27 26.34 73.27 16.54 38.42 1.09 1 17.56 1 26.34"/><line class="cls-1" x1="26.62" y1="26.33" x2="26.62" y2="52.8"/><line class="cls-1" x1="47.81" y1="26.33" x2="47.81" y2="52.8"/><path d="M56.38,65.8c3.09,0,3.1-4.8,0-4.8s-3.09,4.8,0,4.8Z" transform="translate(-18.28 -27.46)"/></svg>