<svg id="Слой_1" data-name="Слой 1" xmlns="http://www.w3.org/2000/svg" viewBox="0 0 65.88 64.54"><defs><style>.cls-1{fill:none;stroke:#000;stroke-miterlimit:10;stroke-width:2px;}</style></defs><title>загородные дома</title><path class="cls-1" d="M25.87,72.6S46.15,68.26,61.29,80s28.28,7.53,28.28,7.53" transform="translate(-25.09 -24.72)"/><path class="cls-1" d="M43.23,71.81S52.94,55.13,87.4,58.76" transform="translate(-25.09 -24.72)"/><path class="cls-1" d="M25.87,54s25.74-4.22,33.93,6.82" transform="translate(-25.09 -24.72)"/><polyline class="cls-1" points="32.63 22.47 36.2 19.54 48.78 9.19 65.25 22.47"/><line class="cls-1" x1="60.91" y1="33.52" x2="60.91" y2="19.54"/><polyline class="cls-1" points="36.2 10.85 36.2 19.54 36.2 35.62"/><polyline class="cls-1" points="46.87 33.52 46.87 24.77 49.93 24.77 49.93 33.52"/><line class="cls-1" x1="11.25" x2="11.25" y2="28.45"/><path class="cls-1" d="M47.32,33.91s-6.77,1.92-11-8.42" transform="translate(-25.09 -24.72)"/><path class="cls-1" d="M25.36,44.12s6.77,1.92,11-8.42" transform="translate(-25.09 -24.72)"/><path class="cls-1" d="M25.36,33.91s6.77,1.92,11-8.42" transform="translate(-25.09 -24.72)"/><path class="cls-1" d="M47.32,44.12s-6.77,1.92-11-8.42" transform="translate(-25.09 -24.72)"/></svg>