<svg width="40" height="40" viewBox="0 0 40 40" fill="none" xmlns="http://www.w3.org/2000/svg">
<path fill-rule="evenodd" clip-rule="evenodd" d="M19.1598 1.50854L19.0308 1.49472L18.9013 1.50326C15.3617 1.73664 13.1675 2.85289 11.7631 4.40392C11.3608 4.84825 11.034 5.32434 10.7647 5.79357C8.48299 5.61756 6.6616 6.29506 5.30324 7.37647C3.72596 8.63217 2.87471 10.3474 2.55356 11.6015C1.84046 14.0097 2.2849 16.0213 3.20735 17.5318C3.84941 18.5831 4.70353 19.3635 5.5 19.8822V25V25.5262L5.8287 25.937L7 27.4012V28V36V37.5H8.5H29H30.5V36V28.4878L32.2131 26.1323L32.5 25.7378V25.25V19.6165C33.2965 19.0978 34.1506 18.3175 34.7927 17.2661C35.7151 15.7557 36.1595 13.7441 35.4464 11.3359C35.1253 10.0818 34.274 8.36652 32.6968 7.11082C31.2754 5.97926 29.3471 5.28994 26.9149 5.55795C26.2412 4.52776 25.4877 3.72587 24.591 3.11868C23.0107 2.0486 21.1829 1.7253 19.1598 1.50854ZM28.2362 26.5L29.5 24.7622V17H31.0137C31.4314 16.702 31.8875 16.2672 32.2324 15.7025C32.7307 14.8865 33.0365 13.7427 32.5633 12.1654L32.5532 12.132L32.5448 12.0981C32.359 11.3551 31.8114 10.2405 30.8282 9.45786C30.2031 8.96017 29.3525 8.55472 28.1882 8.50494L25.6154 9.57693C24.6637 7.29299 23.8082 6.21169 22.909 5.60276C22.0097 4.99382 20.8691 4.71575 18.9708 4.50569C16.0981 4.71759 14.7381 5.58791 13.9869 6.41753C13.3226 7.15116 13.0289 7.91831 12.694 8.79275L12.694 8.79275L12.694 8.7928C12.5976 9.04469 12.4977 9.30548 12.3846 9.57693L10.4715 8.77981C8.96092 8.67742 7.90942 9.13625 7.17176 9.72352C6.18863 10.5062 5.64097 11.6208 5.45521 12.3638L5.44676 12.3976L5.43674 12.431C4.96353 14.0084 5.26926 15.1521 5.76765 15.9682C6.21766 16.705 6.85712 17.2207 7.35359 17.5H8.5V24.4738L10.1209 26.5H12.3241L11.5092 19.1657L14.4908 18.8344L15.3426 26.5H17.6803L17.4912 19.038L20.4903 18.962L20.6812 26.5H22.6574L23.5092 18.8344L26.4908 19.1657L25.6759 26.5H28.2362ZM10 34.5V29.5H27.5V34.5H10Z" fill="black"/>
</svg>
