<svg width="40" height="39" viewBox="0 0 40 39" fill="none" xmlns="http://www.w3.org/2000/svg">
<path fill-rule="evenodd" clip-rule="evenodd" d="M25.6922 9.07625C23.7982 7.80271 21.4596 7.43508 19.9115 7.5088L19.8699 7.51078H19.8282C16.4764 7.51078 14.528 8.93641 13.3507 10.6576C12.5379 11.8459 12.0713 13.216 11.8461 14.4344H28.9025C28.5069 11.7112 27.1865 10.081 25.6922 9.07625ZM10.4619 8.68164C8.9728 10.8586 8.35339 13.3653 8.2098 15.2965L3.0733 19.2477C1.67732 20.3215 1.63649 22.4125 2.9895 23.54L7.99974 27.7152L5.83808 31.1121H4.19284V34.6121H6.24979C7.19002 34.6121 8.06507 34.1318 8.56986 33.3385L11.7393 28.358H18.5994V34.4256H22.0994V28.358H30.6487L32.5494 32.9198C32.9764 33.9446 33.9777 34.6121 35.0879 34.6121H37.5483V31.1121H35.5879L33.7928 26.8038L37.7093 23.54C39.0623 22.4125 39.0215 20.3215 37.6255 19.2477L32.5002 15.3051C32.2657 10.8499 30.2478 7.92173 27.6452 6.17175C24.9967 4.39098 21.8869 3.91904 19.7871 4.01084C15.2401 4.02308 12.2499 6.06755 10.4619 8.68164ZM5.94965 21.4508L10.521 17.9344H30.1778L34.7491 21.4508L30.6606 24.858H10.0382L5.94965 21.4508ZM13.0529 22.4385C13.6286 22.4385 14.0952 21.9718 14.0952 21.3962C14.0952 20.8205 13.6286 20.3538 13.0529 20.3538C12.4772 20.3538 12.0105 20.8205 12.0105 21.3962C12.0105 21.9718 12.4772 22.4385 13.0529 22.4385ZM21.3918 21.3962C21.3918 21.9718 20.9251 22.4385 20.3494 22.4385C19.7737 22.4385 19.307 21.9718 19.307 21.3962C19.307 20.8205 19.7737 20.3538 20.3494 20.3538C20.9251 20.3538 21.3918 20.8205 21.3918 21.3962ZM27.6459 22.4385C28.2216 22.4385 28.6883 21.9718 28.6883 21.3962C28.6883 20.8205 28.2216 20.3538 27.6459 20.3538C27.0702 20.3538 26.6035 20.8205 26.6035 21.3962C26.6035 21.9718 27.0702 22.4385 27.6459 22.4385Z" fill="black"/>
</svg>
