<svg width="40" height="40" viewBox="0 0 40 40" fill="none" xmlns="http://www.w3.org/2000/svg">
<circle cx="12.5" cy="13.5" r="3.25" stroke="black" stroke-width="2.5"/>
<circle cx="19.5" cy="11.5" r="3.25" stroke="black" stroke-width="2.5"/>
<circle cx="26.5" cy="13.5" r="3.25" stroke="black" stroke-width="2.5"/>
<circle cx="19.5" cy="18.5" r="3.25" stroke="black" stroke-width="2.5"/>
<circle cx="26.5" cy="20.5" r="3.25" stroke="black" stroke-width="2.5"/>
<circle cx="13.5" cy="20.5" r="3.25" stroke="black" stroke-width="2.5"/>
<circle cx="19.5" cy="25.5" r="3.25" stroke="black" stroke-width="2.5"/>
<circle cx="19.5" cy="32.5" r="3.25" stroke="black" stroke-width="2.5"/>
<path fill-rule="evenodd" clip-rule="evenodd" d="M21.0363 31.4349C21.0416 31.438 21.0468 31.441 21.0521 31.444C23.4136 32.8033 26.4097 32.1933 27.7442 30.0816C29.0786 27.9699 28.2461 25.1562 25.8846 23.797C25.2226 23.416 24.5108 23.1897 23.7997 23.1079L22.9971 25.5263C23.4793 25.4955 24.0148 25.6029 24.5491 25.9104C25.8949 26.685 26.0675 28.0591 25.5774 28.8345C25.0874 29.6099 23.7335 30.1053 22.3876 29.3307C22.1868 29.215 22.012 29.0861 21.8617 28.9477L21.0363 31.4349Z" fill="black"/>
<path fill-rule="evenodd" clip-rule="evenodd" d="M14.4576 23.1983C14.3249 23.2129 14.1918 23.2335 14.0585 23.2603C11.6218 23.7496 10.0432 26.1215 10.5325 28.5582C11.0219 30.9948 13.3938 32.5734 15.8305 32.0841C16.649 31.9197 17.3707 31.5429 17.9498 31.0225L16.7942 28.4334C16.5481 29.0298 16.0184 29.4964 15.3382 29.633C14.2553 29.8505 13.2011 29.1489 12.9836 28.066C12.7661 26.983 13.4677 25.9288 14.5507 25.7113C14.9187 25.6374 15.2833 25.6696 15.6129 25.7869L14.4576 23.1983Z" fill="black"/>
<path d="M19.5 7.99995C19.5 3.59995 19.5 2.83328 19.5 2.99995H9H29.5" stroke="black" stroke-width="3"/>
</svg>
