<svg width="40" height="40" viewBox="0 0 40 40" fill="none" xmlns="http://www.w3.org/2000/svg">
<path d="M2.5 37H38" stroke="black" stroke-width="3"/>
<path d="M9 37L16.5 9" stroke="black" stroke-width="3"/>
<path d="M25 38.5L31.5 13" stroke="black" stroke-width="3"/>
<path d="M13.5 7.5L35 13" stroke="black" stroke-width="3"/>
<path d="M21.5 10L16.5 29" stroke="black" stroke-width="3"/>
<path d="M27 11L22 30" stroke="black" stroke-width="3"/>
<path d="M8.5 26L30.5 31.5" stroke="black" stroke-width="3"/>
<path d="M10 20L32 25.5" stroke="black" stroke-width="3"/>
<path d="M11 14L33 19.5" stroke="black" stroke-width="3"/>
<path d="M19.0473 8.70862L20.5759 4.46315C20.7453 3.99265 21.2362 3.71962 21.7253 3.8239L29.9281 5.5729C30.4861 5.69187 30.8317 6.25281 30.6869 6.80466L29.6281 10.8407" stroke="black" stroke-width="3"/>
<path d="M15.5 32.5L14.5 36" stroke="black" stroke-width="3"/>
<path d="M20.5 34L20 36.5" stroke="black" stroke-width="3"/>
</svg>
