<svg id="Слой_1" data-name="Слой 1" xmlns="http://www.w3.org/2000/svg" viewBox="0 0 57.03 65.21"><defs><style>.cls-1{fill:none;stroke:#000;stroke-miterlimit:10;stroke-width:2px;}</style></defs><title>гостиницы 2</title><path class="cls-1" d="M1.36,56" transform="translate(-30.68 -26.15)"/><rect class="cls-1" x="1" y="1" width="32.33" height="63.21"/><polygon class="cls-1" points="7.5 7.96 12.56 7.96 12.56 18.9 7.75 18.9 7.5 7.96"/><polygon class="cls-1" points="20.8 7.96 25.86 7.96 25.86 18.9 21.05 18.9 20.8 7.96"/><polygon class="cls-1" points="7.5 27.13 12.56 27.13 12.56 38.08 7.75 38.08 7.5 27.13"/><polygon class="cls-1" points="20.8 27.13 25.86 27.13 25.86 38.08 21.05 38.08 20.8 27.13"/><polygon class="cls-1" points="7.98 46.31 13.05 46.31 13.05 57.26 8.24 57.26 7.98 46.31"/><polygon class="cls-1" points="21.28 46.31 26.34 46.31 26.34 57.26 21.53 57.26 21.28 46.31"/><polyline class="cls-1" points="33.33 38.84 56.03 38.84 56.03 43.35 33.33 43.35"/><line class="cls-1" x1="50.51" y1="64.21" x2="50.51" y2="43.35"/></svg>