<svg id="Слой_1" data-name="Слой 1" xmlns="http://www.w3.org/2000/svg" viewBox="0 0 32.53 65.84"><defs><style>.cls-1{fill:none;stroke:#000;stroke-miterlimit:10;stroke-width:2px;}</style></defs><title>гостиницы драфт</title><rect class="cls-1" x="2.19" y="12.24" width="26.9" height="52.6"/><polygon class="cls-1" points="7.6 18.03 11.81 18.03 11.81 27.14 7.81 27.14 7.6 18.03"/><polygon class="cls-1" points="18.66 18.03 22.87 18.03 22.87 27.14 18.87 27.14 18.66 18.03"/><polygon class="cls-1" points="7.6 33.99 11.81 33.99 11.81 43.09 7.81 43.09 7.6 33.99"/><polygon class="cls-1" points="18.66 33.99 22.87 33.99 22.87 43.09 18.87 43.09 18.66 33.99"/><polygon class="cls-1" points="8 49.95 12.21 49.95 12.21 59.05 8.21 59.05 8 49.95"/><polygon class="cls-1" points="19.06 49.95 23.27 49.95 23.27 59.05 19.27 59.05 19.06 49.95"/><line class="cls-1" x1="1" y1="0.67" x2="1" y2="9.18"/><line class="cls-1" x1="4.57" y1="0.67" x2="4.57" y2="9.18"/><line class="cls-1" x1="17.3" y1="1.37" x2="17.3" y2="9.88"/><line class="cls-1" x1="28.66" y1="0.67" x2="28.66" y2="9.18"/><polyline class="cls-1" points="22.36 9.18 22.36 1.46 22.36 0.67"/><line class="cls-1" x1="1" y1="4.92" x2="4.57" y2="4.92"/><path class="cls-1" d="M62.62,28.64V34s2.1,3.74,3.81,0V28.64S64.85,25,62.62,28.64Z" transform="translate(-54.62 -26.01)"/><line class="cls-1" x1="14.49" y1="1.7" x2="20.02" y2="1.7"/><line class="cls-1" x1="26.23" y1="1.37" x2="21.38" y2="1.37"/><line class="cls-1" x1="26.23" y1="4.92" x2="21.38" y2="4.92"/><line class="cls-1" x1="26.23" y1="9.01" x2="21.38" y2="9.01"/><line class="cls-1" x1="32.53" y1="9.01" x2="27.68" y2="9.01"/></svg>