<svg width="40" height="37" viewBox="0 0 40 37" fill="none" xmlns="http://www.w3.org/2000/svg">
<g clip-path="url(#clip0_30_38)">
<path d="M5.9202 36.3948H34.1372" stroke="black" stroke-width="3" stroke-miterlimit="10"/>
<path d="M25.449 22.2389V36.8421" stroke="black" stroke-width="3" stroke-miterlimit="10"/>
<path d="M14.6137 36.8421V22.2389L15.6188 20.7497H24.8912L25.449 22.2389H34.1373" stroke="black" stroke-width="3" stroke-miterlimit="10"/>
<path d="M5.9202 22.5073H15.061" stroke="black" stroke-width="3" stroke-miterlimit="10"/>
<path d="M6.28333 29.5379H14.6137" stroke="black" stroke-width="3" stroke-miterlimit="10"/>
<path d="M25.449 29.5379H34.132" stroke="black" stroke-width="3" stroke-miterlimit="10"/>
<path d="M36.1107 3.75211V16.003" stroke="black" stroke-width="3" stroke-miterlimit="10"/>
<path d="M0.368378 19.713L19.6498 0.731476L39.2681 19.2709" stroke="black" stroke-width="3" stroke-miterlimit="10"/>
<path d="M10.4459 9.7933L29.3169 9.86698" stroke="black" stroke-width="3" stroke-miterlimit="10"/>
<path d="M35.8107 16.003L4.93616 16.2503L3.87315 16.2608" stroke="black" stroke-width="3" stroke-miterlimit="10"/>
<path d="M6.5 22.5C6.5 22.5 2 22.5 4.4455 15.8078" stroke="black" stroke-width="3" stroke-miterlimit="10"/>
<path d="M33 22.5C33 22.5 39 22 35.0545 16" stroke="black" stroke-width="3" stroke-miterlimit="10"/>
<path d="M33 29.5C33 29.5 37.6862 26.5 33.5 22" stroke="black" stroke-width="3" stroke-miterlimit="10"/>
<path d="M7.2392 29.5C7.2392 29.5 2.55298 26.5 6.7392 22" stroke="black" stroke-width="3" stroke-miterlimit="10"/>
<path d="M7.2392 36.5C7.2392 36.5 2.55298 33.5 6.7392 29" stroke="black" stroke-width="3" stroke-miterlimit="10"/>
<path d="M33 36.5C33 36.5 37.6862 33.5 33.5 29" stroke="black" stroke-width="3" stroke-miterlimit="10"/>
</g>
<defs>
<clipPath id="clip0_30_38">
<rect width="39.6259" height="37" fill="white"/>
</clipPath>
</defs>
</svg>
