<svg id="Слой_1" data-name="Слой 1" xmlns="http://www.w3.org/2000/svg" viewBox="0 0 75.3 70.31"><defs><style>.cls-1{fill:none;stroke:#000;stroke-miterlimit:10;stroke-width:2px;}</style></defs><title>дер. дома</title><line class="cls-1" x1="11.25" y1="69.16" x2="64.87" y2="69.16"/><line class="cls-1" x1="48.36" y1="42.26" x2="48.36" y2="70.01"/><polyline class="cls-1" points="27.77 70.01 27.77 42.26 29.68 39.43 47.3 39.43 48.36 42.26 64.87 42.26"/><line class="cls-1" x1="11.25" y1="42.77" x2="28.62" y2="42.77"/><line class="cls-1" x1="11.94" y1="56.13" x2="27.77" y2="56.13"/><line class="cls-1" x1="48.36" y1="56.13" x2="64.86" y2="56.13"/><path d="M83.49,80.43a8.63,8.63,0,0,0,5.94-8.07,8.83,8.83,0,0,0-5.93-8v2.17a8.5,8.5,0,0,0,4.43-3.14c2.41-3.47.15-7.52-2.16-10.34-.91-1.12-2.5.48-1.59,1.59,1.69,2.06,3.73,5.31,1.66,7.8a6.21,6.21,0,0,1-2,1.51,3.47,3.47,0,0,1-1,.41,1.14,1.14,0,0,0,0,2.17,6.5,6.5,0,0,1,4.28,5.81,6.32,6.32,0,0,1-4.29,5.9c-1.35.49-.77,2.66.6,2.17Z" transform="translate(-18.66 -23.21)"/><path d="M82.89,80.43a6.46,6.46,0,0,1,4.28,5.85,4.42,4.42,0,0,1-1.1,3.11,7.68,7.68,0,0,1-3.19,1.89c-1.36.47-.78,2.64.6,2.17a9.92,9.92,0,0,0,4.29-2.59,6.78,6.78,0,0,0,1.65-4.58,8.79,8.79,0,0,0-5.93-8,1.13,1.13,0,0,0-1.38.78,1.15,1.15,0,0,0,.78,1.39Z" transform="translate(-18.66 -23.21)"/><path d="M30.28,65.17c-3.21,1.17-5.94,3.69-5.94,7.33a8.61,8.61,0,0,0,5.94,7.93c1.37.48,2-1.7.6-2.17a6.31,6.31,0,0,1-4.29-5.76c0-2.58,2-4.33,4.29-5.16A1.15,1.15,0,0,0,31.67,66a1.14,1.14,0,0,0-1.39-.79Z" transform="translate(-18.66 -23.21)"/><path d="M30.28,78.26a8.78,8.78,0,0,0-5.92,8A6.77,6.77,0,0,0,26,90.86a9.9,9.9,0,0,0,4.3,2.59c1.37.47,2-1.7.59-2.17-2.35-.82-4.31-2.31-4.28-5a6.44,6.44,0,0,1,4.27-5.85A1.17,1.17,0,0,0,31.67,79a1.13,1.13,0,0,0-1.39-.78Z" transform="translate(-18.66 -23.21)"/><polyline class="cls-1" points="0.7 37.46 37.34 1.39 74.62 36.62"/><line class="cls-1" x1="19.85" y1="18.61" x2="55.71" y2="18.75"/><polyline class="cls-1" points="68.05 30.41 9.38 30.88 7.36 30.9"/><path class="cls-1" d="M29.91,66s-7.36-2.41-3-11.88" transform="translate(-18.66 -23.21)"/><line class="cls-1" x1="68.62" y1="7.13" x2="68.62" y2="30.41"/></svg>