<svg width="40" height="40" viewBox="0 0 40 40" fill="none" xmlns="http://www.w3.org/2000/svg">
<g clip-path="url(#clip0_9_7)">
<path d="M4 23.3938V32.9149C4 32.9149 4 37.8287 9.34458 37.8287H31.2362C31.2362 37.8287 36.7861 38.4302 36.7861 33.4261V23.3938" stroke="black" stroke-width="3" stroke-miterlimit="10"/>
<path d="M4 29.8414C4.44689 30.7737 5.12327 31.8082 6.05329 31.8924C7.71403 32.0367 8.40853 28.9633 10.3712 28.8189C12.3339 28.6746 13.1613 31.9405 15.3052 31.8924C17.449 31.8443 17.8657 28.6325 20.0337 28.5122C22.3165 28.3859 23.1318 31.8803 25.4689 31.7901C27.806 31.6999 28.5972 28.3979 30.4028 28.7167C31.7737 28.9633 31.8824 30.9842 33.4888 31.3811C34.6966 31.6819 35.9769 30.8278 36.7741 30.1782" stroke="black" stroke-width="3" stroke-miterlimit="10"/>
<path d="M4 24.1577C4.44689 25.0839 5.12327 26.1244 6.05329 26.2086C7.71403 26.3469 8.40853 23.2735 10.3712 23.1352C12.3339 22.9968 13.1613 26.2567 15.3052 26.2086C17.449 26.1605 17.8657 22.9487 20.0337 22.8284C22.3165 22.6961 23.1318 26.1906 25.4689 26.1004C27.806 26.0101 28.5972 22.7081 30.4028 23.0329C31.7737 23.2795 31.8824 25.2944 33.4888 25.6914C34.6966 25.9981 35.9769 25.138 36.7741 24.4884" stroke="black" stroke-width="3" stroke-miterlimit="10"/>
<path d="M10.3712 2V23.1352" stroke="black" stroke-width="3" stroke-miterlimit="10"/>
<path d="M4 15.5087C4 15.5087 8.52327 15.3042 10.3712 11.2083C10.3712 11.2083 12.5272 16.6214 16.8451 15.5087" stroke="black" stroke-width="3" stroke-miterlimit="10"/>
<path d="M4 6.2944C4 6.2944 8.52327 6.0899 10.3712 2C10.3712 2 12.5272 7.41311 16.8451 6.2944" stroke="black" stroke-width="3" stroke-miterlimit="10"/>
<path d="M29.6781 15.6651C31.9928 15.6651 33.8693 13.7963 33.8693 11.491C33.8693 9.18571 31.9928 7.31689 29.6781 7.31689C27.3635 7.31689 25.487 9.18571 25.487 11.491C25.487 13.7963 27.3635 15.6651 29.6781 15.6651Z" stroke="black" stroke-width="3" stroke-miterlimit="10"/>
</g>
<defs>
<clipPath id="clip0_9_7">
<rect width="40" height="40" fill="white"/>
</clipPath>
</defs>
</svg>
