<svg width="40" height="40" viewBox="0 0 40 40" fill="none" xmlns="http://www.w3.org/2000/svg">
<g clip-path="url(#clip0_9_9)">
<path d="M2.42624 28.9653C2.42624 28.9653 13.5082 26.6117 21.7814 32.9783C30.0547 39.3449 37.235 37.0618 37.235 37.0618" stroke="black" stroke-width="3" stroke-miterlimit="10"/>
<path d="M12 29C12 29 17.4958 19.1643 37 21.3048" stroke="black" stroke-width="3" stroke-miterlimit="10"/>
<path d="M2.42624 18.8785C2.42624 18.8785 16.4918 16.59 20.9672 22.577" stroke="black" stroke-width="3" stroke-miterlimit="10"/>
<path d="M19.8306 15.1855L21.7814 13.5965L28.6557 7.98373L37.6557 15.1855" stroke="black" stroke-width="3" stroke-miterlimit="10"/>
<path d="M35.2841 21.1779V13.5965" stroke="black" stroke-width="3" stroke-miterlimit="10"/>
<path d="M21.7814 8.88394V13.5965V22.3167" stroke="black" stroke-width="3" stroke-miterlimit="10"/>
<path d="M27.612 21.1779V16.4328H29.2842V21.1779" stroke="black" stroke-width="2" stroke-miterlimit="10"/>
<path d="M8.14755 3V18.4284" stroke="black" stroke-width="3" stroke-miterlimit="10"/>
<path d="M14.1475 7.98373C14.1475 7.98373 10.4481 9.02495 8.1366 3.41757" stroke="black" stroke-width="3" stroke-miterlimit="10"/>
<path d="M2.14755 13.5206C2.14755 13.5206 5.84701 14.5618 8.15848 8.95445" stroke="black" stroke-width="3" stroke-miterlimit="10"/>
<path d="M2.14755 7.56616C2.14755 7.56616 5.84701 8.60738 8.15848 3" stroke="black" stroke-width="3" stroke-miterlimit="10"/>
<path d="M14.1475 13.5206C14.1475 13.5206 10.4481 14.5618 8.1366 8.95445" stroke="black" stroke-width="3" stroke-miterlimit="10"/>
</g>
<defs>
<clipPath id="clip0_9_9">
<rect width="36" height="35" fill="white" transform="translate(2 3)"/>
</clipPath>
</defs>
</svg>
