<svg width="40" height="40" viewBox="0 0 40 40" fill="none" xmlns="http://www.w3.org/2000/svg">
<circle cx="32.5" cy="21.5" r="1.5" fill="black"/>
<circle cx="27" cy="25" r="10.5" stroke="black" stroke-width="3"/>
<circle cx="28.5" cy="19.5" r="1.5" fill="black"/>
<circle cx="28.5" cy="23.5" r="1.5" fill="black"/>
<path d="M16.0548 15.6941C16.0548 15.6941 8.51524 23.5 15.6941 34.4729C15.6941 34.4729 15.9506 35.6513 14.0908 35.5992C12.2309 35.5471 8.25871 35.5992 8.25871 35.5992C8.05396 35.5358 7.86775 35.4235 7.71619 35.2719C7.56463 35.1203 7.4523 34.9341 7.38892 34.7294C7.38892 34.7294 4.98395 23.2136 5.4449 18.9688C5.4449 18.9688 5.49701 16.2552 8.56735 14.3112L8.51524 12.7079H14.7241L14.8243 13.8863C14.8243 13.8863 16.4556 15.2852 16.0548 15.6941Z" stroke="black" stroke-width="3" stroke-miterlimit="10"/>
<path d="M8 9H15V6.6757C15 6.6757 11.6548 0.709985 8 6.59435V9Z" stroke="black" stroke-width="3" stroke-miterlimit="10"/>
</svg>
