<svg width="40" height="40" viewBox="0 0 40 40" fill="none" xmlns="http://www.w3.org/2000/svg">
<g clip-path="url(#clip0_9_12)">
<path d="M19.7232 14.8625C19.7007 14.8853 19.4299 14.9517 19.4166 14.9826C19.4034 15.0135 19.3956 15.047 19.3938 15.0813C18.125 22.1563 16.1772 28.7945 13.318 34.8122C13.299 34.8541 13.2702 34.8892 13.2349 34.9136C13.1996 34.9381 13.1591 34.951 13.1178 34.951H4.22572C4.18632 34.9511 4.14759 34.9394 4.11339 34.9171C4.07919 34.8947 4.05072 34.8625 4.03082 34.8237C4.01093 34.7848 4.0003 34.7407 4.00001 34.6957C3.99971 34.6507 4.00976 34.6064 4.02915 34.5672L19.3437 3.13177C19.3633 3.09181 19.3918 3.05854 19.4263 3.03537C19.4609 3.01221 19.5002 3 19.5403 3C19.5804 3 19.6197 3.01221 19.6543 3.03537C19.6888 3.05854 19.7173 3.09181 19.7369 3.13177L34.9728 34.6203C34.9913 34.6594 35.0007 34.7032 35 34.7476C34.9992 34.7921 34.9884 34.8355 34.9686 34.8737C34.9488 34.9119 34.9207 34.9437 34.887 34.9658C34.8533 34.9879 34.8151 34.9997 34.7763 35H26.07C26.03 35.0005 25.9905 34.9887 25.9559 34.9657C25.9213 34.9427 25.8928 34.9094 25.8734 34.8693C23.1143 29.4028 21.1522 22.7361 19.8512 15.114C19.8531 15.0797 19.8491 15.0453 19.8393 15.0128C19.8295 14.9802 19.8143 14.9502 19.7944 14.9244C19.7744 14.8987 19.7503 14.8776 19.7232 14.8625ZM19.7232 14.8625C19.7458 14.8398 19.5197 14.8612 19.5482 14.85C19.5766 14.8389 19.6068 14.8342 19.6368 14.8364C19.6668 14.8385 19.6962 14.8474 19.7232 14.8625Z" stroke="black" stroke-width="3" stroke-miterlimit="10"/>
<path d="M36.5 25.5C36.5 24.6716 35.8284 24 35 24C34.1716 24 33.5 24.6716 33.5 25.5H36.5ZM33.5 25.5V34.5H36.5V25.5H33.5Z" fill="black"/>
<path d="M5.5 26C5.5 25.1716 4.82843 24.5 4 24.5C3.17157 24.5 2.5 25.1716 2.5 26H5.5ZM2.5 26V35H5.5V26H2.5Z" fill="black"/>
</g>
<defs>
<clipPath id="clip0_9_12">
<rect width="35.3106" height="32" fill="white" transform="translate(2 3)"/>
</clipPath>
</defs>
</svg>
