<svg id="Слой_1" data-name="Слой 1" xmlns="http://www.w3.org/2000/svg" viewBox="0 0 59.42 61.5"><defs><style>.cls-1{fill:none;stroke:#000;stroke-miterlimit:10;stroke-width:2px;}</style></defs><title>лыжня</title><polyline class="cls-1" points="0.38 12.14 20.69 20.48 30.22 24.4"/><path class="cls-1" d="M75.36,46.26s11.41-2.9,4.43-12.94c0,0-11.75-7.83-12.43,9.36,0,0-11.81-9-20.2,8.34" transform="translate(-26.47 -30.54)"/><path class="cls-1" d="M27.7,72,75.87,90.85s8.68,1.7,9-5.11" transform="translate(-26.47 -30.54)"/><polyline class="cls-1" points="24.72 31.03 34.42 39.38 27.36 51.66"/><path class="cls-1" d="M83.53,61.57S81,66.34,72.47,58.68l-2.9-5.28-5,8.17s8,3.07,7.87,6c0,0,4.53,3.33-11,17.67" transform="translate(-26.47 -30.54)"/></svg>