<svg width="40" height="40" viewBox="0 0 40 40" fill="none" xmlns="http://www.w3.org/2000/svg">
<g clip-path="url(#clip0_4_8)">
<path fill-rule="evenodd" clip-rule="evenodd" d="M20.3384 4.48701C20.4284 4.48873 20.5188 4.49108 20.6096 4.49406C21.1103 4.43949 21.5 4.01525 21.5 3.5C21.5 2.94772 21.0523 2.5 20.5 2.5C19.9477 2.5 19.5 2.94772 19.5 3.5C19.5 3.99728 19.863 4.40978 20.3384 4.48701ZM17.2082 4.69191C17.0735 4.31989 17 3.91853 17 3.5C17 1.567 18.567 0 20.5 0C22.433 0 24 1.567 24 3.5C24 3.99193 23.8985 4.46015 23.7153 4.88488C26.0178 5.39288 28.5021 6.43456 30.8091 8.27404C33.8544 10.7022 36.5065 14.4536 38.0462 20H39.5V23H0.5V20H1.9219C2.68517 17.2158 4.20373 13.7419 6.69507 10.7837C9.16637 7.84937 12.6206 5.4025 17.2082 4.69191ZM8.98971 12.7163C7.04846 15.0213 5.77327 17.7207 5.04967 20H34.9201C33.5111 15.4505 31.2976 12.5005 28.9388 10.6197C26.1832 8.42253 23.1265 7.60305 20.6753 7.49864C15.359 7.27221 11.5951 9.6227 8.98971 12.7163ZM21.4132 27.5H8V33.3886L17.8867 36.3976L24.8473 33.1493L31.3543 29.8958C31.441 29.681 31.5136 29.4625 31.563 29.2515C31.6491 28.8841 31.6434 28.6332 31.6073 28.4888C31.5836 28.3939 31.5502 28.3308 31.4246 28.2556C31.276 28.1666 30.9501 28.0403 30.3186 28.0079L22.3541 31.7559C22.0934 31.948 21.8083 32.1319 21.4986 32.3066L21.1556 32.5H20.7617H14.8511V29.5H20.3454C21.3243 28.8654 21.4734 28.3176 21.496 28.0528C21.5119 27.8667 21.4773 27.6758 21.4132 27.5ZM24.4687 27.4452C24.34 26.4014 23.8375 25.5414 23.3618 25.0049L22.9142 24.5H22.2394H5V26.5V27.5V34.5V35.6114L6.06326 35.935L17.5633 39.435L18.1133 39.6024L18.6343 39.3593L26.1343 35.8593L26.1527 35.8507L26.1708 35.8416L33.1708 32.3416L33.618 32.118L33.8416 31.6708C34.2846 30.7849 34.8859 29.2339 34.5177 27.7612C34.3123 26.9394 33.8144 26.19 32.966 25.6819C32.1639 25.2014 31.156 25 30 25H29.6647L29.3613 25.1428L24.4687 27.4452Z" fill="black"/>
</g>
<defs>
<clipPath id="clip0_4_8">
<rect width="40" height="40" fill="white"/>
</clipPath>
</defs>
</svg>
