<svg width="40" height="40" viewBox="0 0 40 40" fill="none" xmlns="http://www.w3.org/2000/svg">
<path fill-rule="evenodd" clip-rule="evenodd" d="M38.6707 3.84161L36.4999 4.92702V33.5C36.4999 35.433 34.9329 37 32.9999 37H25.4999H15.4999H8.49992C6.56693 37 4.99992 35.433 4.99992 33.5V20.677L3.67074 21.3416L2.3291 18.6583L4.99992 17.3229V8.49997H7.99992V15.8229L34.3291 2.65833L37.3291 1.15833L38.6707 3.84161ZM7.99992 33.5V19.177L33.4999 6.42702V33.5C33.4999 33.7761 33.2761 34 32.9999 34H26.9999V23.5C26.9999 21.567 25.4329 20 23.4999 20H17.4999C15.5669 20 13.9999 21.567 13.9999 23.5V34H8.49992C8.22378 34 7.99992 33.7761 7.99992 33.5ZM23.9999 23.5V34H16.9999V23.5C16.9999 23.2238 17.2238 23 17.4999 23H23.4999C23.7761 23 23.9999 23.2238 23.9999 23.5ZM29.4999 15C30.3283 15 30.9999 14.3284 30.9999 13.5C30.9999 12.6715 30.3283 12 29.4999 12C28.6715 12 27.9999 12.6715 27.9999 13.5C27.9999 14.3284 28.6715 15 29.4999 15Z" fill="black"/>
</svg>
