<svg width="40" height="40" viewBox="0 0 40 40" fill="none" xmlns="http://www.w3.org/2000/svg">
<path d="M5 14V6C5 5.44772 5.44772 5 6 5H34.5C35.0523 5 35.5 5.44772 35.5 6V14M5 14H35.5M5 14V23.5M35.5 14V23.5M35.5 23.5V35.5H30.5M35.5 23.5C34.8333 22.5 32.9 21.1 30.5 23.5V35.5M30.5 35.5H26.5M5 23.5V35.5H10M5 23.5C5.66667 22.5 7.6 21.1 10 23.5V35.5M10 35.5H14M14 35.5H26.5M14 35.5V29.5M26.5 35.5V29.5M26.5 29.5V25.5C25.7 23.1 21.8333 20.5 20 19.5C15.2 21.9 14 24.5 14 25.5V29.5M26.5 29.5H14" stroke="black" stroke-width="3"/>
<circle cx="11.5" cy="9.5" r="1.5" fill="black"/>
<circle cx="20.5" cy="9.5" r="1.5" fill="black"/>
<circle cx="28.5" cy="9.5" r="1.5" fill="black"/>
</svg>
