<svg width="40" height="40" viewBox="0 0 40 40" fill="none" xmlns="http://www.w3.org/2000/svg">
<path d="M21 5C18.3333 3.5 11.5 2.1 5.5 8.5C3.5 11.6667 1.3 19.4 8.5 25C10.5 26.3333 15.8 28.4 21 26V32H27L31.5 36.5H36.5V32L26 21.5L27 19" stroke="black" stroke-width="3" stroke-linecap="square"/>
<circle cx="13" cy="13" r="2.75" stroke="black" stroke-width="2.5"/>
<path d="M22 9.5C24.3333 9.66667 28.9 8.6 28.5 3C28.3333 5.33333 29.4 9.9 35 9.5C32.8333 9.33333 28.5 10.3 28.5 15.5C28.8333 13.3333 28 9.1 22 9.5Z" stroke="black" stroke-width="2.8" stroke-linecap="square"/>
</svg>
