<svg width="40" height="40" viewBox="0 0 40 40" fill="none" xmlns="http://www.w3.org/2000/svg">
<g clip-path="url(#clip0_4_6)">
<path fill-rule="evenodd" clip-rule="evenodd" d="M3.02802 9H5.49999H6.99999H16.2758L10.8021 15.5H3.14839L3.02802 9ZM3.20395 18.5L3.3862 28.3417C3.4573 28.285 3.52913 28.2301 3.60165 28.177C5.01276 27.1444 6.56853 26.8873 7.66564 27.0092L7.67585 27.0103L7.68604 27.0116C8.72901 27.142 9.60174 27.5136 10.3234 28.0176L10.0435 18.5H3.20395ZM10.2634 33H3.77795C4.18984 31.7296 4.81126 31.0093 5.37333 30.598C6.13137 30.0433 6.9193 29.9475 7.32503 29.9898C8.35039 30.1216 9.08102 30.7225 9.61869 31.5751C9.90756 32.0332 10.1183 32.5337 10.2634 33ZM26.5288 33L26.9838 17.5282L20 9.23495L13.0162 17.5282L13.4712 33H15.5V26.9087V26.603L15.6196 26.3217C15.9007 25.6606 16.3191 24.9206 16.8723 24.2701C17.4184 23.628 18.1711 22.9859 19.1373 22.6801C20.1604 22.3562 21.2727 22.4588 22.3576 23.0715C23.3924 23.6559 24.3528 24.6725 25.2646 26.102L25.5 26.471V26.9087V33H26.5288ZM22.5 27.3596V33H18.5V27.2343C18.6746 26.8781 18.8994 26.5173 19.1576 26.2136C19.4865 25.8269 19.7956 25.6184 20.0427 25.5402C20.2329 25.4799 20.4856 25.4596 20.8823 25.6837C21.2828 25.9099 21.8366 26.3949 22.5 27.3596ZM36.222 33H29.7366C29.8816 32.5337 30.0924 32.0332 30.3813 31.5751C30.919 30.7225 31.6496 30.1216 32.675 29.9898C33.0807 29.9475 33.8686 30.0433 34.6267 30.598C35.1887 31.0093 35.8101 31.7296 36.222 33ZM37 28.6753C36.8058 28.4941 36.6049 28.3282 36.3983 28.177C34.9872 27.1444 33.4314 26.8873 32.3343 27.0092L32.3241 27.0103L32.3139 27.0116C31.271 27.142 30.3982 27.5136 29.6766 28.0176L29.9565 18.5H37V28.6753ZM37 15.5V9H34.5H33H23.7242L29.1978 15.5H37ZM21.1978 6H31.5V3H34.5V6H38.5H40V7.5V34.5V36H38.5H1.99999H0.52751L0.500246 34.5278L0.000246406 7.52777L-0.0280457 6H1.49999H5.49999V3H8.49999V6H18.8021H19.5H20.5H21.1978ZM20 18C20.5523 18 21 17.5523 21 17C21 16.4477 20.5523 16 20 16C19.4477 16 19 16.4477 19 17C19 17.5523 19.4477 18 20 18Z" fill="black"/>
</g>
<defs>
<clipPath id="clip0_4_6">
<rect width="40" height="40" fill="white"/>
</clipPath>
</defs>
</svg>
