<svg id="Слой_1" data-name="Слой 1" xmlns="http://www.w3.org/2000/svg" viewBox="0 0 48.47 91.39"><defs><style>.cls-1{fill:none;stroke:#000;stroke-miterlimit:10;stroke-width:2px;}</style></defs><title>отопление</title><path class="cls-1" d="M53.06,62.6S32.05,57,39.45,36.89c0,0,17.87-12,15.15-23.88,0,0,24,16.22,23.49,32.39A20.37,20.37,0,0,1,64,62.6s10.38-19.75-3.07-28.94c0,0,6.62,17.19-3.41,17.53a6,6,0,0,1-5.1-5.45s-6.88,4.34.31,16.81" transform="translate(-33 -10.76)"/><path class="cls-1" d="M77.7,74.37,59,65.34a4.87,4.87,0,0,0-4.31,0l-18,9A4.9,4.9,0,0,0,34,78.72v7.56a4.9,4.9,0,0,0,2.51,4.27l17.93,10a4.9,4.9,0,0,0,4.74,0L77.94,90.2a4.89,4.89,0,0,0,2.53-4.28V78.77A4.89,4.89,0,0,0,77.7,74.37ZM57.23,84.55l-13.7-6.29,13.16-6.81,13.74,6.81Z" transform="translate(-33 -10.76)"/></svg>