<svg id="Слой_1" data-name="Слой 1" xmlns="http://www.w3.org/2000/svg" viewBox="0 0 65.22 65.7"><defs><style>.cls-1{fill:none;stroke:#000;stroke-miterlimit:10;stroke-width:2px;}</style></defs><title>отл виды</title><path class="cls-1" d="M25.11,25.74l.51,63.71H38.38V66.6s.26-7.5-13.27-8c0,0,18.25-2,18.12-13.87v-19Z" transform="translate(-24.1 -24.74)"/><line class="cls-1" x1="65.22" y1="5.85" x2="19.39" y2="5.85"/><line class="cls-1" x1="14.28" y1="59.64" x2="64.2" y2="59.64"/><line class="cls-1" x1="60.97" y1="5.85" x2="60.97" y2="58.96"/><path class="cls-1" d="M38.38,74c.75,2.34,1.8,4.74,3.11,4.77,1.82,0,2.33-4.55,4.77-4.94,2.76-.44,4,5.13,7.65,5.45C58,79.63,59.56,72.91,64,73c4.17.06,5.75,6.15,9.19,5.62,3-.48,3.49-5.52,6.3-5.79,2.16-.21,4.21,2.55,5.61,4.93" transform="translate(-24.1 -24.74)"/><path class="cls-1" d="M38.38,64.61c.75,2.34,1.8,4.74,3.11,4.76,1.82,0,2.33-4.54,4.77-4.93,2.76-.44,4,5.13,7.65,5.45,4.07.35,5.65-6.37,10.05-6.3,4.17.06,5.75,6.15,9.19,5.61,3-.47,3.49-5.51,6.3-5.78,2.16-.21,4.21,2.54,5.61,4.93" transform="translate(-24.1 -24.74)"/><circle class="cls-1" cx="45.47" cy="21.16" r="4.62"/></svg>