<svg width="40" height="40" viewBox="0 0 40 40" fill="none" xmlns="http://www.w3.org/2000/svg">
<g clip-path="url(#clip0_12_2)">
<path d="M28.8523 27.3184L20.7851 23.4229C20.4959 23.2802 20.1778 23.206 19.8554 23.206C19.533 23.206 19.2149 23.2802 18.9257 23.4229L11.1605 27.3055C10.811 27.4821 10.5175 27.7523 10.3126 28.0859C10.1077 28.4195 9.99947 28.8035 10 29.195V32.4564C10.0006 32.832 10.1012 33.2006 10.2915 33.5244C10.4818 33.8481 10.755 34.1154 11.0828 34.2985L18.8179 38.6126C19.1309 38.7855 19.4827 38.8763 19.8403 38.8763C20.1979 38.8763 20.5497 38.7855 20.8627 38.6126L28.9558 34.1475C29.2862 33.9655 29.5617 33.6981 29.7537 33.3734C29.9457 33.0487 30.047 32.6784 30.0473 32.3011V29.2166C30.0467 28.8199 29.9343 28.4313 29.7229 28.0955C29.5116 27.7598 29.2098 27.4905 28.8523 27.3184Z" stroke="black" stroke-width="3" stroke-miterlimit="10"/>
<path fill-rule="evenodd" clip-rule="evenodd" d="M21.3321 1.75644L20.0083 1L19.2736 2.33593L17.2269 6.0571L16.7574 5.85586L15.5758 5.34947L14.8945 6.43958L13.6663 8.40465L13.6286 8.46508L13.5967 8.52882L12.8598 10.0026L12.8319 10.0584L12.8087 10.1164L12.3174 11.3445L12.2572 11.4951L12.2306 11.655L12.2177 11.7316C12.0855 12.5159 11.7133 14.7243 12.4128 16.8733C12.7879 18.0257 13.4777 19.1889 14.6732 20.0999C15.8555 21.0008 17.4283 21.5758 19.4454 21.745C21.2596 21.9796 23.9568 21.6265 26.0198 19.9409C28.2297 18.1353 29.3896 15.0762 28.4417 10.6078C28.2898 9.89153 27.9215 9.09451 27.49 8.33904C27.0443 7.55865 26.4734 6.72338 25.8344 5.9129C24.5796 4.32118 22.9467 2.67909 21.3321 1.75644ZM19.2003 8.69435L21.0911 5.25646C21.8965 5.9375 22.7312 6.82228 23.4785 7.77023C24.0402 8.48267 24.524 9.19489 24.885 9.8269C25.2602 10.4838 25.4505 10.9641 25.507 11.2303C26.1663 14.3386 25.5249 16.1144 24.6086 17.1501C24.6775 15.3266 23.5832 13.2457 21.35 10.9298L20.4394 9.98547L19.4379 10.8329C18.2875 11.8063 16.7443 13.5211 16.2264 15.4578C16.0668 16.0548 15.9988 16.6987 16.0861 17.3521C15.6927 16.941 15.4339 16.4621 15.2655 15.9447C14.8282 14.6015 15.0309 13.1206 15.1635 12.3072L15.571 11.2885L16.2481 9.93421L16.7572 9.11968L17.2951 9.35019L18.5449 9.88585L19.2003 8.69435ZM21.7434 17.4134C21.5827 17.8859 21.0281 18.3113 20.2603 18.534C19.5069 18.1383 19.1631 17.741 19.006 17.438C18.8305 17.0995 18.7934 16.697 18.9314 16.1811C19.1316 15.4322 19.6574 14.6248 20.275 13.9244C21.9112 15.9184 21.8867 16.9922 21.7434 17.4134Z" fill="black"/>
<g filter="url(#filter0_d_12_2)">
<path d="M24 30L19.7333 32L16 30" stroke="black" stroke-width="3" stroke-linecap="round"/>
</g>
</g>
<defs>
<filter id="filter0_d_12_2" x="10.4997" y="28.4996" width="19.0006" height="13.178" filterUnits="userSpaceOnUse" color-interpolation-filters="sRGB">
<feFlood flood-opacity="0" result="BackgroundImageFix"/>
<feColorMatrix in="SourceAlpha" type="matrix" values="0 0 0 0 0 0 0 0 0 0 0 0 0 0 0 0 0 0 127 0" result="hardAlpha"/>
<feOffset dy="4"/>
<feGaussianBlur stdDeviation="2"/>
<feComposite in2="hardAlpha" operator="out"/>
<feColorMatrix type="matrix" values="0 0 0 0 0 0 0 0 0 0 0 0 0 0 0 0 0 0 0.25 0"/>
<feBlend mode="normal" in2="BackgroundImageFix" result="effect1_dropShadow_12_2"/>
<feBlend mode="normal" in="SourceGraphic" in2="effect1_dropShadow_12_2" result="shape"/>
</filter>
<clipPath id="clip0_12_2">
<rect width="40" height="40" fill="white"/>
</clipPath>
</defs>
</svg>
