<svg width="40" height="40" viewBox="0 0 40 40" fill="none" xmlns="http://www.w3.org/2000/svg">
<path fill-rule="evenodd" clip-rule="evenodd" d="M2.5 2.5H4H14H15.3735L15.4942 3.86816C15.5122 4.07184 15.528 4.28269 15.5414 4.5H39.1616V7.5H38.5V33.5H39.1529V36.5H12.3305C12.2188 37.1608 12.0926 37.7805 11.9601 38.3436L11.688 39.5H10.5H4H2.5V38V21V4V2.5ZM15.5616 7.5H35.5V21.7657C35.2703 21.7499 35.013 21.7111 34.7369 21.6367C34.1227 21.4713 33.5319 21.4541 32.9594 21.5953C32.4065 21.7318 31.966 21.9935 31.624 22.2352C31.4073 22.3884 31.1604 22.5876 30.9553 22.7531L30.9551 22.7532L30.9551 22.7533L30.9549 22.7534L30.9547 22.7536C30.873 22.8195 30.7981 22.88 30.7343 22.93C30.4672 23.1398 30.2119 23.3225 29.9215 23.4789C29.8827 23.4998 29.6324 23.5926 28.6709 23.0933C28.3998 22.9526 28.1628 22.8163 27.9025 22.6667L27.9024 22.6666L27.9023 22.6665C27.7276 22.5662 27.5425 22.4598 27.3297 22.342C26.8718 22.0886 26.3041 21.7949 25.7165 21.6367C24.3847 21.2781 23.3046 21.6921 22.4321 22.1033C22.1985 22.2133 21.9751 22.3247 21.7517 22.4361L21.7517 22.4361C21.1033 22.7595 20.4553 23.0827 19.5592 23.3722C18.8387 23.605 18.2522 23.4252 17.4537 22.9645C17.2654 22.8559 17.0822 22.7416 16.8788 22.6148L16.8786 22.6148L16.8237 22.5805C16.6085 22.4464 16.3645 22.2951 16.1163 22.1588C15.6426 21.8987 14.9703 21.5851 14.1837 21.5851C13.1351 21.5851 12.1844 22.039 11.5172 22.4567C11.2452 22.627 10.9909 22.81 10.7614 22.992C10.4869 22.5756 10.177 22.1824 9.82788 21.8195C9.61618 21.5994 9.39258 21.3932 9.15707 21.2016C9.61986 20.9369 10.0552 20.6357 10.4635 20.3019C12.1241 18.9442 13.2613 17.1102 14.0308 15.1807C15.0187 12.7036 15.4506 9.94495 15.5616 7.5ZM12.0325 25.7582C12.1651 26.1894 12.276 26.6275 12.3682 27.0676C12.428 27.3532 12.4805 27.6425 12.5261 27.9344C13.0244 27.7315 13.5883 27.5851 14.1837 27.5851C14.9703 27.5851 15.6426 27.8987 16.1163 28.1588C16.3645 28.2951 16.6085 28.4464 16.8237 28.5805L16.8786 28.6148L16.8788 28.6148C17.0822 28.7416 17.2654 28.8559 17.4537 28.9645C18.2522 29.4252 18.8387 29.605 19.5592 29.3722C20.4553 29.0827 21.1033 28.7595 21.7517 28.4361L21.7517 28.4361C21.9751 28.3247 22.1985 28.2133 22.4321 28.1033C23.3046 27.6921 24.3847 27.2781 25.7165 27.6367C26.3041 27.7949 26.8718 28.0886 27.3297 28.342C27.5425 28.4598 27.7276 28.5662 27.9023 28.6665L27.9024 28.6666L27.9025 28.6667C28.1628 28.8163 28.3998 28.9526 28.6709 29.0933C29.6324 29.5926 29.8827 29.4998 29.9215 29.4789C30.2119 29.3225 30.4672 29.1398 30.7343 28.93C30.7981 28.88 30.873 28.8195 30.9547 28.7536L30.9549 28.7534L30.9551 28.7533L30.9551 28.7532L30.9553 28.7531C31.1604 28.5876 31.4073 28.3884 31.624 28.2352C31.966 27.9935 32.4065 27.7318 32.9594 27.5953C33.5319 27.4541 34.1227 27.4713 34.7369 27.6367C35.013 27.7111 35.2703 27.7499 35.5 27.7657V24.7696C35.0249 24.7514 34.5039 24.6808 33.957 24.5336C33.7752 24.4846 33.7028 24.5019 33.6783 24.5079C33.6343 24.5188 33.5442 24.5518 33.3556 24.6851C33.2157 24.7839 33.0982 24.8791 32.9416 25.0059L32.9416 25.0059L32.9416 25.0059L32.9414 25.0061C32.8436 25.0853 32.7305 25.1769 32.5872 25.2895C32.2573 25.5485 31.8493 25.848 31.3438 26.1202C29.7908 26.9565 28.1839 26.2208 27.2883 25.7557C26.9762 25.5936 26.6231 25.3915 26.314 25.2146L26.3134 25.2143L26.3131 25.2141C26.1516 25.1216 26.0022 25.0361 25.877 24.9668C25.4394 24.7246 25.1449 24.5897 24.9365 24.5336C24.6765 24.4636 24.4301 24.4782 23.7108 24.8171C23.5633 24.8866 23.3961 24.9702 23.2099 25.0633L23.2099 25.0633C22.537 25.3998 21.6159 25.8604 20.4816 26.2269C18.549 26.8513 17.0131 26.1739 15.9545 25.563C15.7192 25.4273 15.4927 25.286 15.2961 25.1634L15.2372 25.1267C15.0171 24.9895 14.8384 24.8797 14.672 24.7883C14.5068 24.6975 14.3871 24.6439 14.298 24.6135C14.2201 24.5869 14.186 24.5852 14.1835 24.5851C13.9586 24.5852 13.5829 24.7029 13.1093 24.9994C12.6611 25.28 12.2838 25.6214 12.0992 25.8202L12.0325 25.7582ZM12.6951 33.5C12.75 32.7568 12.7794 31.9943 12.7754 31.2277C12.8804 31.1499 12.9925 31.0725 13.1093 30.9994C13.5829 30.7029 13.9586 30.5852 14.1835 30.5851C14.186 30.5852 14.2201 30.5869 14.298 30.6135C14.3871 30.6439 14.5068 30.6975 14.672 30.7883C14.8384 30.8797 15.0171 30.9895 15.2372 31.1267L15.2961 31.1634C15.4927 31.286 15.7192 31.4273 15.9545 31.563C17.0131 32.1739 18.549 32.8513 20.4816 32.2269C21.6159 31.8604 22.537 31.3998 23.2099 31.0633L23.2099 31.0633C23.3961 30.9702 23.5633 30.8866 23.7108 30.8171C24.4301 30.4782 24.6765 30.4636 24.9365 30.5336C25.1449 30.5897 25.4394 30.7246 25.877 30.9668C26.0022 31.0361 26.1516 31.1216 26.3131 31.2141L26.3134 31.2143L26.314 31.2146C26.6231 31.3915 26.9762 31.5936 27.2883 31.7557C28.1839 32.2208 29.7908 32.9565 31.3438 32.1202C31.8493 31.848 32.2573 31.5485 32.5872 31.2895C32.7305 31.1769 32.8436 31.0853 32.9414 31.0061L32.9416 31.0059L32.9416 31.0059L32.9416 31.0059C33.0982 30.8791 33.2157 30.7839 33.3556 30.6851C33.5442 30.5518 33.6343 30.5188 33.6783 30.5079C33.7028 30.5019 33.7752 30.4846 33.957 30.5336C34.5039 30.6808 35.0249 30.7514 35.5 30.7696V33.5H12.6951ZM5.5 19.3725C6.74089 19.1506 7.74187 18.652 8.5646 17.9794C9.71966 17.035 10.6012 15.6815 11.2442 14.0693C12.3358 11.3324 12.6518 8.0691 12.5829 5.5H5.5V19.3725ZM5.5 22.6678C6.42691 22.8942 7.12311 23.3351 7.66587 23.8993C8.5089 24.7756 9.09422 26.0702 9.43185 27.6824C10.0202 30.4919 9.77567 33.8759 9.28347 36.5H5.5V22.6678ZM29.2 15C29.2 15.6627 28.6627 16.2 28 16.2C27.3373 16.2 26.8 15.6627 26.8 15C26.8 14.3373 27.3373 13.8 28 13.8C28.6627 13.8 29.2 14.3373 29.2 15ZM32 15C32 17.2091 30.2091 19 28 19C25.7909 19 24 17.2091 24 15C24 12.7909 25.7909 11 28 11C30.2091 11 32 12.7909 32 15Z" fill="black"/>
</svg>
