<svg width="40" height="40" viewBox="0 0 40 40" fill="none" xmlns="http://www.w3.org/2000/svg">
<g clip-path="url(#clip0_4_9)">
<path d="M1 37V24C1.33333 23 2.4 21 4 21C5.6 21 16.3333 21 21.5 21C22.1667 21 23.5 21.6 23.5 24C23.5 26.4 23.5 33.6667 23.5 37" stroke="black" stroke-width="3"/>
<path d="M7.5 21V17C7.66667 16.3333 8.4 15 10 15C11.6 15 14.6667 15 16 15C16.5 15.1667 17.5 15.8 17.5 17C17.5 18.2 17.5 20.1667 17.5 21" stroke="black" stroke-width="3"/>
<path d="M2.5 21V11C2.5 10.3333 3.1 8.99999 5.5 8.99999H20C20.8333 8.83332 22.5 9.19999 22.5 12C22.5 14.8 22.5 19.1667 22.5 21" stroke="black" stroke-width="3"/>
<line x1="1" y1="32.5" x2="23" y2="32.5" stroke="black" stroke-width="3"/>
<path d="M24 32.5H38.5" stroke="black" stroke-width="3"/>
<path d="M38.5 37.5V24.5C38.6667 24 38.4 23 36 23C33.6 23 27 23 24 23" stroke="black" stroke-width="3"/>
</g>
<defs>
<clipPath id="clip0_4_9">
<rect width="40" height="40" fill="white"/>
</clipPath>
</defs>
</svg>
