<svg id="Слой_1" data-name="Слой 1" xmlns="http://www.w3.org/2000/svg" viewBox="0 0 69.57 52.7"><defs><style>.cls-1{fill:none;stroke:#000;stroke-miterlimit:10;stroke-width:2px;}</style></defs><title>отд комн</title><polyline class="cls-1" points="1 52.7 1 29.21 4.45 24.49 37.38 24.49 41.34 27.43 41.34 52.06"/><polyline class="cls-1" points="1 44.15 41.34 44.15 68.53 44.15 67.89 26.75 41.34 26.75 40.45 3.55 37.38 1 3.94 1 1 3.43 1 29.21"/><polyline class="cls-1" points="11.09 24.49 11.09 15.55 13.51 11.85 27.3 11.85 31.25 14.91 31.25 24.49"/><polyline class="cls-1" points="44.66 15.55 49.77 1 58.96 1 64.32 15.55 54.49 15.55 45.55 15.55"/><line class="cls-1" x1="54.49" y1="26.15" x2="54.49" y2="15.55"/><path d="M76.81,74.22a1.5,1.5,0,0,0,0-3,1.5,1.5,0,0,0,0,3Z" transform="translate(-22.19 -37)"/><line class="cls-1" x1="68.53" y1="44.79" x2="68.53" y2="50.79"/></svg>