<svg width="40" height="40" viewBox="0 0 40 40" fill="none" xmlns="http://www.w3.org/2000/svg">
<path fill-rule="evenodd" clip-rule="evenodd" d="M20.8437 7.29868L16.776 15.8408C16.4336 16.5598 15.7964 17.095 15.0292 17.3082L7.68322 19.3487C7.58386 20.4645 7.37725 21.8029 7.10384 23.25H10.5V26.75H6.36823C5.72309 29.5807 4.95901 32.4801 4.32383 34.75H11.7691C11.8722 33.1215 12.2166 31.2003 12.9847 29.4476C14.0935 26.9173 16.2156 24.5159 19.8753 24.2544L19.9376 24.25H20C21.6373 24.25 23.8532 24.9679 25.5899 26.9452C27.1 28.6645 28.1356 31.2023 28.2616 34.75H35.75V25.4011L35.193 24.25H30.5V20.75H33.4995L32.0478 17.75H24V14.25H30.3543L28.7018 10.8348L20.8437 7.29868ZM24.7594 34.75C24.638 31.9069 23.8134 30.2263 22.9601 29.2548C21.9582 28.114 20.763 27.7687 20.058 27.7507C18.1566 27.9114 16.9642 29.0866 16.1904 30.8524C15.6486 32.0886 15.3758 33.5039 15.2777 34.75H24.7594ZM17.9992 5.13121C18.6423 3.78083 20.2467 3.19197 21.6106 3.80574L30.3867 7.75497C30.9755 8.01996 31.4523 8.48371 31.7336 9.06496L38.9754 24.0314C39.1561 24.4049 39.25 24.8144 39.25 25.2292V35.5C39.25 37.0188 38.0188 38.25 36.5 38.25H3.33927C1.50263 38.25 0.188806 36.4908 0.690731 34.7353C2.01415 30.1066 3.98735 22.4091 4.2272 18.6463C4.29962 17.5102 5.06102 16.4446 6.26398 16.1104L13.763 14.0274L17.9992 5.13121Z" fill="black"/>
</svg>
