<svg id="Слой_1" data-name="Слой 1" xmlns="http://www.w3.org/2000/svg" viewBox="0 0 60.19 57.89"><defs><style>.cls-1{fill:none;stroke:#000;stroke-miterlimit:10;stroke-width:2px;}</style></defs><title>пляж 2</title><path class="cls-1" d="M29.36,55.09H64s-.13-10.86-16.6-17.37C47.36,37.72,34.09,41.55,29.36,55.09Z" transform="translate(-27.95 -32.15)"/><rect class="cls-1" x="6.51" y="22.93" width="24.77" height="12.13"/><line class="cls-1" x1="18.9" y1="29.7" x2="18.9" y2="35.06"/><path class="cls-1" d="M72.38,66.06c7-5.61,1.92-30.51,1.92-30.51s4-6.64,13.15,2.17" transform="translate(-27.95 -32.15)"/><path class="cls-1" d="M61.28,37.72s1.53-7.91,13-2.17" transform="translate(-27.95 -32.15)"/><path class="cls-1" d="M67.79,46.4s-.64-4.46,6.51-7.14c0,0,8,2,7.79,7.14" transform="translate(-27.95 -32.15)"/><path class="cls-1" d="M29.36,78.7c4.13-3.62,7.29-4.16,9.45-4,4.3.42,5.39,3.91,9.57,3.88s4.8-3.57,9.07-3.62,4.94,3.49,9.32,3.53c4,0,5.08-3,9.32-3.4,3.23-.35,6.42,1,9.44,3.32" transform="translate(-27.95 -32.15)"/><path class="cls-1" d="M29.36,89.13c4.13-3.62,7.29-4.16,9.45-3.95,4.3.41,5.39,3.9,9.57,3.87s4.8-3.57,9.07-3.62,4.94,3.49,9.32,3.53c4,0,5.08-2.95,9.32-3.4,3.23-.35,6.42,1,9.44,3.32" transform="translate(-27.95 -32.15)"/></svg>