<svg width="40" height="40" viewBox="0 0 40 40" fill="none" xmlns="http://www.w3.org/2000/svg">
<path fill-rule="evenodd" clip-rule="evenodd" d="M21.2442 1.69763L19.9204 0.941193L19.1857 2.27712L14.341 11.0856L12.0909 10.1213L10.9093 9.6149L10.228 10.705L7.72801 14.705L7.69024 14.7654L7.65837 14.8292L6.15837 17.8292L6.13046 17.885L6.10729 17.9429L5.10729 20.4429L5.04707 20.5935L5.02042 20.7534L4.99855 20.884C4.73321 22.465 4.03318 26.6363 5.33617 30.6393C6.01972 32.7393 7.26116 34.8213 9.40182 36.4525C11.5296 38.0738 14.4412 39.1701 18.3395 39.4919C21.7224 39.9383 26.7725 39.2677 30.5741 36.1616C34.5222 32.9357 36.8055 27.3542 34.9674 18.6887C34.7075 17.4637 34.05 16.0053 33.2008 14.5186C32.3374 13.0069 31.2204 11.3704 29.9598 9.77134C27.4616 6.60254 24.2833 3.43425 21.2442 1.69763ZM16.3143 13.7229L21.041 5.12889C23.2547 6.70122 25.6066 9.09527 27.6039 11.6287C28.7872 13.1296 29.8171 14.6431 30.5958 16.0064C31.3887 17.3946 31.8683 18.5363 32.0326 19.3113C33.6945 27.1458 31.5612 31.481 28.6759 33.8384C27.8563 34.5081 26.9513 35.0391 26.0119 35.4498C26.4087 34.9124 26.7372 34.305 26.9701 33.6206C28.1524 30.1453 26.5562 25.6381 21.0798 19.9588L20.1041 18.947L19.0311 19.8549C16.7722 21.7663 13.8755 25.0362 12.9259 28.5875C12.4377 30.4133 12.4457 32.3957 13.4183 34.2717C13.674 34.7648 13.9889 35.2362 14.3639 35.6847C13.0737 35.2532 12.0439 34.694 11.2201 34.0663C9.6451 32.8662 8.71779 31.3357 8.18885 29.7107C7.14069 26.4906 7.68515 23.0165 7.95293 21.4065L8.86955 19.115L10.3098 16.2346L12.0907 13.3851L14.4091 14.3787L15.659 14.9144L16.3143 13.7229ZM24.1299 32.6544C23.5491 34.3617 21.6734 35.4771 19.6804 35.933C17.6627 34.9709 16.6022 33.8948 16.0817 32.8908C15.5335 31.8335 15.4789 30.6533 15.8241 29.3625C16.4212 27.1292 18.1528 24.8279 19.9132 23.107C24.3034 27.9947 24.6912 31.0047 24.1299 32.6544Z" fill="black"/>
</svg>
