<svg width="40" height="40" viewBox="0 0 40 40" fill="none" xmlns="http://www.w3.org/2000/svg">
<path fill-rule="evenodd" clip-rule="evenodd" d="M12.5526 3.9799C16.1994 1.4802 20.886 -0.27934 26.0865 0.847098C31.4008 1.99818 34.3793 5.81043 35.9267 9.85829C37.4609 13.8713 37.6695 18.28 37.4003 21.1405L37.2336 22.9123L35.5156 22.4481L22.5291 18.9391L17.4462 37.3982L14.5538 36.6018L19.6329 18.1566L5.60873 14.3672L3.66668 13.8425L4.7238 12.1309C6.16665 9.79485 8.91457 6.47363 12.5526 3.9799ZM34.4996 19.0659L30.7755 18.0597C31.5042 12.9015 30.3854 8.33116 29.1649 5.41861C31.018 6.76896 32.2818 8.72506 33.1245 10.9296C34.1701 13.6647 34.5154 16.6756 34.4996 19.0659ZM26.1113 5.92997C27.1998 8.23418 28.4451 12.4346 27.8533 17.2701L23.3256 16.0467L26.1113 5.92997ZM19.0656 4.07932C17.3514 4.59894 15.7349 5.43573 14.2488 6.45439C11.8197 8.11944 9.82125 10.2186 8.44205 12.0252L12.5865 13.1451C14.2073 9.14999 16.7287 6.13629 19.0656 4.07932ZM15.5076 13.9343L20.4294 15.2642L23.3759 4.56388C21.0693 6.03455 17.5516 9.15044 15.5076 13.9343ZM10.2 32C10.2 33.215 9.21503 34.2 8 34.2C6.78497 34.2 5.8 33.215 5.8 32C5.8 30.785 6.78497 29.8 8 29.8C9.21503 29.8 10.2 30.785 10.2 32ZM13 32C13 34.7614 10.7614 37 8 37C5.23858 37 3 34.7614 3 32C3 29.2386 5.23858 27 8 27C10.7614 27 13 29.2386 13 32Z" fill="black"/>
</svg>
