<svg width="40" height="40" viewBox="0 0 40 40" fill="none" xmlns="http://www.w3.org/2000/svg">
<path d="M21.2118 20.2785C20.2769 22.1646 19.5049 24.1272 18.9043 26.1447C17.8277 29.7872 17.308 33.5715 17.3629 37.3694" stroke="black" stroke-width="3" stroke-miterlimit="10"/>
<path d="M30.2967 35.9414C26.2966 37.9123 21.7553 38.4991 17.3856 37.6097C15.5598 37.2867 13.7842 36.7258 12.1042 35.9414C12.3762 35.2886 12.7616 34.3048 13.1469 33.0899C14.0536 30.2067 13.8042 29.6626 14.4117 27.677C14.9013 26.0949 15.9803 22.577 19.0176 20.9903C19.7055 20.6353 20.4466 20.3949 21.2118 20.2785" stroke="black" stroke-width="3" stroke-miterlimit="10"/>
<path d="M21.2118 20.2785C22.14 22.1659 22.9074 24.1283 23.5057 26.1447C24.5823 29.7872 25.102 33.5715 25.047 37.3694" stroke="black" stroke-width="3" stroke-miterlimit="10"/>
<path d="M12.1042 35.9414C16.1044 37.912 20.6456 38.4988 25.0153 37.6097C26.8349 37.2852 28.6043 36.7243 30.2786 35.9414C30.0066 35.2886 29.6212 34.3048 29.2359 33.0899C28.3292 30.2067 28.5831 29.6626 27.9711 27.677C27.5177 26.0949 26.4207 22.577 23.3833 20.9903C22.7024 20.6379 21.9692 20.3976 21.2118 20.2785" stroke="black" stroke-width="3" stroke-miterlimit="10"/>
<path d="M21.5463 19.5466C22.6509 19.5466 23.5463 18.6511 23.5463 17.5466C23.5463 16.442 22.6509 15.5466 21.5463 15.5466C20.4417 15.5466 19.5463 16.442 19.5463 17.5466C19.5463 18.6511 20.4417 19.5466 21.5463 19.5466Z" stroke="black" stroke-width="2.5" stroke-miterlimit="10"/>
<path d="M14.2802 8.9541L16.7147 14.571" stroke="black" stroke-width="3" stroke-miterlimit="10"/>
<path d="M21.5589 7.54657L21.5463 12.571" stroke="black" stroke-width="3" stroke-miterlimit="10"/>
<path d="M28.8641 8.9541L26.5521 14.571" stroke="black" stroke-width="3" stroke-miterlimit="10"/>
<path d="M10.0007 10.5725C10.0007 10.5725 2.53423 7.79358 11.1567 6.34743C11.1567 6.34743 11.5239 -1.58147 21.2118 3.97647C21.2118 3.97647 29.3265 -1.08279 28.5785 5.59489C28.5785 5.59489 39.4269 5.26848 33.1119 10.0739" stroke="black" stroke-width="3" stroke-miterlimit="10"/>
</svg>
