<svg width="40" height="40" viewBox="0 0 40 40" fill="none" xmlns="http://www.w3.org/2000/svg">
<path d="M5.5 11H29.5M35.5 11H29.5M29.5 11C29.5 8.99999 30.5 0.499993 22.5 4.99999M22.5 4.99999V10M22.5 4.99999C20.5 3.5 16.5 1.3 14.5 6.5" stroke="black" stroke-width="3" stroke-linecap="square"/>
<path d="M22 11.5V19.5C23 21 26.2 23.2 31 20C31.6667 19.5 33.4 19.1 35 21.5" stroke="black" stroke-width="3" stroke-linecap="square"/>
<path d="M6 21.5C6.83333 20.6667 8.9 19.1 10.5 19.5C12.5 20 14 22.5 15.5 22C17 21.5 19 18.5 21.5 19.5" stroke="black" stroke-width="3"/>
<path d="M6 28.5C7.16667 27.5 9.8 25.7 11 26.5C12.5 27.5 14.5 29 16 28.5C17.5 28 19 25.5 20.5 26C22 26.5 24 29.5 26 28C28 26.5 31.5 24.5 34.5 28" stroke="black" stroke-width="3"/>
<path d="M6 35.5657C7.16667 34.5657 9.8 32.7657 11 33.5657C12.5 34.5657 14.5 36.0657 16 35.5657C17.5 35.0657 19 32.5658 20.5 33.0657C22 33.5657 24 36.5657 26 35.0657C28 33.5657 31.5 31.5657 34.5 35.0657" stroke="black" stroke-width="3"/>
<path d="M29.5 11.5V20.5" stroke="black" stroke-width="3"/>
</svg>
