<svg width="40" height="40" viewBox="0 0 40 40" fill="none" xmlns="http://www.w3.org/2000/svg">
<path d="M22 22V11.5L12.5 4L4 11.5V22H9.5M22 22H31.5M22 22H15.5M36.5 22H31.5M31.5 22V11.5M31.5 3C31 5.33333 29.1 9.8 25.5 9M31.5 3C32 5.33333 33.9 9.8 37.5 9M31.5 3V11.5M25.5 15.5C27.1667 15.3333 30.7 14.3 31.5 11.5M31.5 11.5C32.3333 13.1667 34.7 16.3 37.5 15.5M9.5 22V15.5H15.5V22M9.5 22H15.5" stroke="black" stroke-width="3"/>
<path d="M3 29.8882C4.39181 28.7625 7.53333 26.7363 8.96491 27.6368C10.7544 28.7625 13.1404 30.451 14.9298 29.8882C16.7193 29.3254 18.5088 26.5112 20.2982 27.074C22.0877 27.6368 24.4737 31.0139 26.8596 29.3254C29.2456 27.6368 33.4211 25.3855 37 29.3254" stroke="black" stroke-width="3"/>
<path d="M3 36.8882C4.39181 35.7625 7.53333 33.7363 8.96491 34.6368C10.7544 35.7625 13.1404 37.451 14.9298 36.8882C16.7193 36.3254 18.5088 33.5112 20.2982 34.074C22.0877 34.6368 24.4737 38.0139 26.8596 36.3254C29.2456 34.6368 33.4211 32.3855 37 36.3254" stroke="black" stroke-width="3"/>
</svg>
