<svg width="40" height="40" viewBox="0 0 40 40" fill="none" xmlns="http://www.w3.org/2000/svg">
<g clip-path="url(#clip0_12_5)">
<path d="M35.831 31.8398H4.72182C3.28356 31.8398 2.11762 33.0058 2.11762 34.444C2.11762 35.8823 3.28356 37.0482 4.72182 37.0482H35.831C37.2693 37.0482 38.4352 35.8823 38.4352 34.444C38.4352 33.0058 37.2693 31.8398 35.831 31.8398Z" stroke="black" stroke-width="3" stroke-miterlimit="10"/>
<path d="M3.78577 31.8398C3.78577 31.8398 -1.08795 28.4355 3.78577 25.4287H10.3277" stroke="black" stroke-width="3" stroke-miterlimit="10"/>
<path d="M3.78577 25.4287C3.78577 25.4287 -2.01877 21.9878 3.78577 17.7311" stroke="black" stroke-width="3" stroke-miterlimit="10"/>
<path d="M36.4167 31.8398C36.4167 31.8398 41.2904 28.4355 36.4167 25.4287H29.8748" stroke="black" stroke-width="3" stroke-miterlimit="10"/>
<path d="M36.4167 25.4287C36.4167 25.4287 42.2265 21.9878 36.4167 17.7311" stroke="black" stroke-width="3" stroke-miterlimit="10"/>
<path d="M1.20773 17.7363H39V12.6116L20.7758 4.53229L1.20773 13.145V17.7363Z" stroke="black" stroke-width="3" stroke-miterlimit="10"/>
<path d="M14.6052 17.7311V31.5731" stroke="black" stroke-width="3" stroke-miterlimit="10"/>
<path d="M25.6862 17.7311V31.5731" stroke="black" stroke-width="3" stroke-miterlimit="10"/>
<path d="M20.6085 24.0115C22.2243 24.0115 22.2296 21.5014 20.6085 21.5014C18.9874 21.5014 18.9926 24.0115 20.6085 24.0115Z" fill="black"/>
</g>
<defs>
<clipPath id="clip0_12_5">
<rect width="40" height="40" fill="white"/>
</clipPath>
</defs>
</svg>
