<svg width="40" height="40" viewBox="0 0 40 40" fill="none" xmlns="http://www.w3.org/2000/svg">
<path d="M25.0284 14.9761L30.2631 3.00003" stroke="black" stroke-width="3"/>
<path d="M17.7784 14.9761L23.0131 3.00003" stroke="black" stroke-width="3"/>
<path d="M10.5284 14.9761L15.7631 3.00003" stroke="black" stroke-width="3"/>
<path d="M14.0625 8.43753H5V13.875C6.40594 16.6869 9.99305 21.68 14.9154 23.7784M19.5 24.75C17.8738 24.75 16.3388 24.3853 14.9154 23.7784M19.5 24.75C20.6745 24.5543 22.3056 24.1049 24.0728 23.3401M19.5 24.75V37.4375M28.5625 8.43753H34V13.875C32.0396 18.7761 27.76 21.7444 24.0728 23.3401M14.9154 23.7784L11.7702 30.608M8.625 37.4375L11.7702 30.608M11.7702 30.608H28.5625M28.5625 30.608L24.0728 23.3401M28.5625 30.608L32.1875 37.4375L24.0728 23.3401" stroke="black" stroke-width="3"/>
</svg>
