<svg width="40" height="40" viewBox="0 0 40 40" fill="none" xmlns="http://www.w3.org/2000/svg">
<path d="M3 37.871V32.2258M3 26.5806V32.2258M3 32.2258H9.77419C12.4086 32.2258 17.4516 31.0968 16.5484 26.5806M16.5484 26.5806C20.1613 25.6774 21.0645 23.9462 21.0645 23.1936C20.7655 22.2964 20.4664 21.5577 20.1674 20.9355M16.5484 26.5806C13.7691 26.5806 9.4693 25.3643 10.5109 20.9355M10.5109 20.9355C10.7387 19.967 11.2219 18.845 12.0323 17.5484C13.5376 17.172 16.7742 16.6452 17.6774 17.5484C18.5074 18.3784 19.3374 19.2084 20.1674 20.9355M10.5109 20.9355H3V4H31.2258V10.7742M20.1674 20.9355H31.2258V15.8548M31.2258 10.7742C31.9785 9.26882 34.3871 6.25806 38 6.25806V19.8065C36.4946 19.4301 33.0323 18.1129 31.2258 15.8548M31.2258 10.7742V15.8548" stroke="black" stroke-width="3"/>
</svg>
