<svg width="40" height="40" viewBox="0 0 40 40" fill="none" xmlns="http://www.w3.org/2000/svg">
<path d="M19.2857 8.83333H25.3571M25.3571 8.83333V7.66667C25.3571 6.11111 24.6286 3 21.7143 3C18.0714 3 16.8571 3 15.6429 7.66667V24C14.4286 24.7778 12 27.2667 12 31C12 33.3333 13.7 38 20.5 38C23.3333 38 29 36.6 29 31C29 29.4444 28.2714 25.8667 25.3571 24V13.5M25.3571 8.83333V13.5M25.3571 13.5H19.2857M20.5 18.1667V28.6667" stroke="black" stroke-width="3"/>
<path d="M22.6428 31C22.6428 32.0486 21.7406 33 20.5 33C19.2594 33 18.3571 32.0486 18.3571 31C18.3571 29.9514 19.2594 29 20.5 29C21.7406 29 22.6428 29.9514 22.6428 31Z" stroke="black" stroke-width="3"/>
</svg>
