<svg width="40" height="40" viewBox="0 0 40 40" fill="none" xmlns="http://www.w3.org/2000/svg">
<path d="M3.54875 23.1118C2.46703 17.1624 2.25069 5.91255 10.039 8.50866M10.039 8.50866L29.5097 8.50869M10.039 8.50866L8.41635 31.2246H31.1323C31.1323 26.0324 30.0506 20.4075 29.5097 18.2441M10.039 8.50866C11.1207 6.34525 14.5821 2.01843 19.7743 2.01843C21.6327 1.83956 26.1814 2.88719 29.5097 8.50869M29.5097 18.2441C34.7019 16.9461 36 11.213 36 8.5087L29.5097 8.50869M29.5097 18.2441V8.50869M19.7743 26.3569L24.642 14.999M13.2841 26.3569L18.1518 14.999M8.41635 37.7149H31.1323" stroke="black" stroke-width="3"/>
</svg>
