<svg width="40" height="40" viewBox="0 0 40 40" fill="none" xmlns="http://www.w3.org/2000/svg">
<circle cx="19.5" cy="20.5" r="2.2" stroke="black" stroke-width="3"/>
<path fill-rule="evenodd" clip-rule="evenodd" d="M24.9979 21.7333C24.5241 23.8544 22.8544 25.5242 20.7333 25.9979V29.0459C24.5143 28.5051 27.505 25.5144 28.0459 21.7333H24.9979ZM28.0459 19.2667C27.505 15.4857 24.5143 12.4949 20.7333 11.9541V15.0021C22.8544 15.4758 24.5241 17.1456 24.9979 19.2667H28.0459ZM18.2666 25.9979C16.1456 25.5242 14.4758 23.8544 14.0021 21.7333L10.9541 21.7333C11.4949 25.5144 14.4856 28.5051 18.2666 29.0459V25.9979ZM18.2666 15.0021C16.1456 15.4758 14.4758 17.1456 14.0021 19.2667H10.9541C11.4949 15.4857 14.4856 12.4949 18.2666 11.9541V15.0021Z" fill="black"/>
<path d="M25.6666 9.39996C28.1333 11.8666 27.64 11.25 28.1333 11.8666" stroke="black" stroke-width="3"/>
<rect x="2.5" y="3.5" width="34" height="34" rx="5.9" stroke="black" stroke-width="3"/>
</svg>
