<svg width="40" height="40" viewBox="0 0 40 40" fill="none" xmlns="http://www.w3.org/2000/svg">
<circle cx="19.5" cy="20.5" r="18" stroke="black" stroke-width="3"/>
<circle cx="19.5" cy="20.5" r="2.4" stroke="black" stroke-width="3"/>
<path fill-rule="evenodd" clip-rule="evenodd" d="M25.4611 21.8C24.9563 24.1255 23.1254 25.9564 20.8 26.4611V29.5078C24.7853 28.9377 27.9377 25.7854 28.5078 21.8H25.4611ZM28.5078 19.2C27.9378 15.2146 24.7854 12.0622 20.8 11.4921V14.5388C23.1255 15.0436 24.9564 16.8745 25.4611 19.2H28.5078ZM18.2 26.4611C15.8745 25.9564 14.0436 24.1255 13.5388 21.8H10.4921C11.0622 25.7854 14.2146 28.9377 18.2 29.5078V26.4611ZM18.2 14.5388C15.8745 15.0436 14.0435 16.8745 13.5388 19.2H10.4921C11.0622 15.2146 14.2145 12.0622 18.2 11.4921V14.5388ZM10.4 20.5L10.4 20.4729L10.4 20.527L10.4 20.5Z" fill="black"/>
<path d="M26 8.79999C28.6 11.4 28.08 10.75 28.6 11.4" stroke="black" stroke-width="3"/>
</svg>
