<svg width="40" height="40" viewBox="0 0 40 40" fill="none" xmlns="http://www.w3.org/2000/svg">
<path d="M5 39.2069V7.13793C5 5.75862 5.62069 3 8.10345 3C10.5862 3 18.1034 3 21.5517 3C22.2414 3.34483 23.6207 4.65517 23.6207 7.13793V8.17241H15.3448M15.3448 8.17241H31.8966V13.3448H35H15.3448M15.3448 8.17241V13.3448M11.2069 13.3448H15.3448" stroke="black" stroke-width="3"/>
<rect x="15.3448" y="17.4827" width="2.36453" height="2.06897" fill="black"/>
<rect x="22.4384" y="17.4827" width="2.36453" height="2.06897" fill="black"/>
<rect x="29.532" y="17.4827" width="2.36453" height="2.06897" fill="black"/>
<rect x="15.3448" y="21.6207" width="2.36453" height="2.06897" fill="black"/>
<rect x="22.4384" y="21.6207" width="2.36453" height="2.06897" fill="black"/>
<rect x="29.532" y="21.6207" width="2.36453" height="2.06897" fill="black"/>
<rect x="15.3448" y="25.7586" width="2.36453" height="2.06897" fill="black"/>
<rect x="22.4384" y="25.7586" width="2.36453" height="2.06897" fill="black"/>
<rect x="29.532" y="25.7586" width="2.36453" height="2.06897" fill="black"/>
<rect x="15.3448" y="29.8965" width="2.36453" height="2.06897" fill="black"/>
<rect x="22.4384" y="29.8965" width="2.36453" height="2.06897" fill="black"/>
<rect x="29.532" y="29.8965" width="2.36453" height="2.06897" fill="black"/>
<rect x="15.3448" y="34.0345" width="2.36453" height="2.06897" fill="black"/>
<rect x="22.4384" y="34.0345" width="2.36453" height="2.06897" fill="black"/>
<rect x="29.532" y="34.0345" width="2.36453" height="2.06897" fill="black"/>
</svg>
