<svg width="40" height="40" viewBox="0 0 40 40" fill="none" xmlns="http://www.w3.org/2000/svg">
<g clip-path="url(#clip0_49_466)">
<path d="M3 24H6.66667M36 24H32.3333M32.3333 24V38.6667H36H27.75M32.3333 24H30.5M3 38.6667H6.66667M6.66667 38.6667V24M6.66667 38.6667H12.1667M6.66667 24H9.41667M12.1667 24V38.6667M12.1667 24H17.6667M12.1667 24H9.41667M12.1667 38.6667H17.6667M17.6667 38.6667V24M17.6667 38.6667H23.1667M17.6667 24H19.9583M23.1667 24V38.6667M23.1667 24H27.75M23.1667 24H19.9583M23.1667 38.6667H26.8333H27.75M27.75 24V38.6667M27.75 24H30.5M9.41667 24V13.9167M30.5 24V13.9167M30.5 13.9167V3.83333L28.6667 2H19.9583M30.5 13.9167H19.9583M9.41667 13.9167V3.83333C10.15 2.36667 10.3333 2 10.3333 2H19.9583M9.41667 13.9167H19.9583M19.9583 13.9167V2M19.9583 13.9167V24" stroke="black" stroke-width="3"/>
</g>
<defs>
<clipPath id="clip0_49_466">
<rect width="40" height="40" fill="white"/>
</clipPath>
</defs>
</svg>
