<svg width="40" height="40" viewBox="0 0 40 40" fill="none" xmlns="http://www.w3.org/2000/svg">
<path d="M18.6792 21.3952C24.5573 20.5098 31.638 18.931 36 17.8446V9.2168C28.6226 7.29952 12.9056 3.8484 9.05655 5.38223C5.20749 6.91606 4.24522 11.1341 4.24522 13.0514C3.28295 15.9273 5.20748 19.7619 9.05655 21.6792C9.622 21.9608 10.6288 22.0744 11.9433 22.0602M18.6792 21.3952C19.9622 24.6853 22.1434 31.4573 20.6037 32.2243H17.2358M18.6792 21.3952C16.0884 21.7854 13.7312 22.0409 11.9433 22.0602M11.9433 22.0602C11.9433 25.4327 13.2264 30.2415 13.8679 32.2243H17.2358M7.132 36.0588H13.8679L17.2358 32.2243" stroke="black" stroke-width="2.82353"/>
<circle cx="12.4706" cy="13.4706" r="3.29412" stroke="black" stroke-width="2.82353"/>
</svg>
