<svg width="40" height="40" viewBox="0 0 40 40" fill="none" xmlns="http://www.w3.org/2000/svg">
<path d="M11.9032 12.0323C12.2796 10.5269 12.129 7.51613 8.51613 7.51613C8.10318 7.51613 7.72798 7.52557 7.3871 7.54531M36.7419 19.9355V24.4516M36.7419 24.4516V32.3548C37.6452 36.871 32.6021 38 29.9677 38C24.6989 38 13.2581 38 9.64516 38C6.03226 38 4.37634 34.2366 4 32.3548C4 30.0463 4 26.6803 4 23.3226M36.7419 24.4516C35.6129 24.828 32.9032 25.129 31.0968 23.3226C29.2903 21.5161 26.5806 22.5699 25.4516 23.3226C24.6989 24.0753 22.5161 25.129 19.8065 23.3226C17.0968 21.5161 14.914 22.5699 14.1613 23.3226C13.4086 24.0753 11.2258 25.129 8.51613 23.3226C5.80645 21.5161 4.37634 22.5699 4 23.3226M4 23.3226C4 18.4696 4 13.6338 4 12.0323C4 8.95488 4 7.74149 7.3871 7.54531M15.2903 16.5484L22.0645 5.25806M4 3H7.3871M10.7742 3H7.3871M7.3871 3V7.54531M22.0645 16.5484L28.8387 5.25806M28.8387 16.5484L35.6129 5.25806" stroke="black" stroke-width="3"/>
</svg>
