<svg width="40" height="40" viewBox="0 0 40 40" fill="none" xmlns="http://www.w3.org/2000/svg">
<path d="M20.128 3H30.4922C32.7032 3 33.256 4.84252 33.256 5.76379V23.7284M20.128 3H9.76379C8.84252 3 7 3.55276 7 5.76379V23.7284M20.128 3V23.7284M20.128 23.7284H7M20.128 23.7284H33.256M7 23.7284V30.6379C7 31.4986 7.72379 33.1636 10.5238 33.3786M33.256 23.7284V30.6379C34.2358 32.5975 31.6697 33.2545 29.7907 33.3786M15.2914 14.0551V15.437M10.5238 33.3786C10.7207 33.3937 10.9278 33.4017 11.1457 33.4017C14.4622 33.4017 24.504 33.4017 29.1103 33.4017C29.3198 33.4017 29.5496 33.3945 29.7907 33.3786M10.5238 33.3786V37M29.7907 33.3786V37" stroke="black" stroke-width="3"/>
<path d="M24.9646 14.0551V15.437" stroke="black" stroke-width="3"/>
<path d="M20.8189 29.2559V27.874" stroke="black" stroke-width="3"/>
</svg>
