<svg width="40" height="40" viewBox="0 0 40 40" fill="none" xmlns="http://www.w3.org/2000/svg">
<g clip-path="url(#clip0_49_538)">
<path d="M20.2011 8.48587C20.1702 8.42845 20.1387 8.37076 20.1065 8.31283M20.1065 8.31283C17.3996 3.43326 10.4028 -3.12285 3.259 8.48587V13.0038C5.89444 17.8982 12.9725 24.7503 20.2011 13.0038H22.4601L23.5895 17.5217H24.719L25.8485 13.0038H30.3664L34.8843 10.7448L31.4959 8.48586L20.1065 8.31283Z" stroke="black" stroke-width="3"/>
<path d="M7.77683 11.8743V10.7448" stroke="black" stroke-width="3"/>
<path d="M22.46 31.3663C17.0385 31.3663 14.9302 31.3663 14.5537 31.3663H22.46ZM22.46 31.3663C24.0722 30.0766 24.8694 28.9403 25.1595 27.9779M25.1595 27.9779C25.6824 26.2433 24.5581 25.0738 23.5895 24.5895H3.25895L1 26.8484C1 26.8484 1 28.2038 1 33.6253L16.8126 38.1432C18.3186 38.5197 21.5564 38.8209 22.46 37.0137L37.1432 26.8484C38.2727 24.966 39.1763 21.427 33.7548 22.3305L25.1595 27.9779Z" stroke="black" stroke-width="3"/>
</g>
<defs>
<clipPath id="clip0_49_538">
<rect width="40" height="40" fill="white"/>
</clipPath>
</defs>
</svg>
