<svg width="40" height="40" viewBox="0 0 40 40" fill="none" xmlns="http://www.w3.org/2000/svg">
<path d="M38.619 5L1.28571 5" stroke="black" stroke-width="3.41841"/>
<path d="M39 10.7142H35.5714M1.28571 10.7142H4.71428M4.71428 10.7142V36.9999H9.28571V16.4285H29.8571V36.9999H35.5714V10.7142M4.71428 10.7142H35.5714" stroke="black" stroke-width="3.16484"/>
<path fill-rule="evenodd" clip-rule="evenodd" d="M20.2129 21.7564L18.8891 21L18.1544 22.3359L16.5344 25.2814L16.3363 25.1965L15.1547 24.6901L14.4734 25.7802L13.4392 27.435L13.4014 27.4955L13.3695 27.5592L12.749 28.8003L12.7211 28.8561L12.6979 28.914L12.2842 29.9483L12.224 30.0988L12.1973 30.2588L12.1859 30.3265C12.074 30.9894 11.7516 32.8989 12.3592 34.7653C12.6873 35.7733 13.293 36.7964 14.3444 37.5976C15.3824 38.3885 16.751 38.8842 18.4816 39.0302C20.0565 39.2324 22.395 38.9276 24.1928 37.4587C26.1377 35.8696 27.1262 33.1952 26.3141 29.3667C26.1786 28.728 25.8545 28.0318 25.4867 27.3879C25.1046 26.719 24.617 26.0059 24.0728 25.3156C23.0075 23.9644 21.6103 22.555 20.2129 21.7564ZM18.5077 27.9187L19.9585 25.2808C20.5519 25.8109 21.1613 26.4682 21.7169 27.1729C22.1838 27.7652 22.5843 28.3552 22.8816 28.8757C23.1931 29.4211 23.3394 29.8006 23.3794 29.9892C23.7986 31.9653 23.577 33.2593 23.1246 34.1182C22.8936 32.6734 21.9311 31.1126 20.3416 29.4642L19.3659 28.4524L18.2929 29.3603C17.3044 30.1968 15.9467 31.6932 15.4857 33.4172C15.42 33.6628 15.3713 33.9188 15.3454 34.1816C15.2945 34.07 15.2503 33.9549 15.2119 33.8368C14.8667 32.7765 15.0197 31.5967 15.1304 30.9105L15.4602 30.0861L16.0209 28.9646L16.3361 28.4603L16.6025 28.5745L17.8524 29.1102L18.5077 27.9187ZM20.1378 35.0435C20.0572 35.2806 19.7473 35.5666 19.2271 35.7437C18.7192 35.4565 18.5099 35.1901 18.4216 35.0198C18.3192 34.8224 18.283 34.5693 18.3839 34.1921C18.5101 33.7199 18.8152 33.2013 19.1985 32.7171C20.2933 34.154 20.2008 34.8584 20.1378 35.0435Z" fill="black"/>
</svg>
