<svg width="40" height="40" viewBox="0 0 40 40" fill="none" xmlns="http://www.w3.org/2000/svg">
<path d="M5 9.66667V3H30C31.1111 3.55556 33.3333 5.66667 33.3333 9.66667H19.1667M5 9.66667H19.1667M5 9.66667V38H13.3333M19.1667 9.66667V13M33.3333 38H28.3333M28.3333 38H13.3333M28.3333 38C29.4058 36.7744 30.6134 34.3657 30.4742 31.3333M26.6667 23L30 16.3333H11.6667L13.3333 21.3333C12.182 22.9451 10.8399 25.3968 10.1375 28M26.6667 23C29.3574 25.9897 30.361 28.8677 30.4742 31.3333M26.6667 23C28.8889 21.8889 33.6667 20.6667 35 24.6667V31.3333M13.3333 38C9.42977 35.6579 9.14519 31.6777 10.1375 28M10.1375 28C13.425 26.8889 20.6667 25.6667 23.3333 29.6667C26 33.6667 29.205 32.4444 30.4742 31.3333" stroke="black" stroke-width="3"/>
</svg>
