<svg width="40" height="40" viewBox="0 0 40 40" fill="none" xmlns="http://www.w3.org/2000/svg">
<path d="M19.5 1V7.33333M19.5 39V32.6667M19.5 7.33333L25.8462 4.8M19.5 7.33333L13.1538 4.8M19.5 7.33333V20M19.5 32.6667L25.8462 35.2M19.5 32.6667L13.1538 35.2M19.5 32.6667V20M19.5 20L30.2494 14.2235M19.5 20L30.2494 26.6017M19.5 20L9.57746 14.2235M19.5 20L8.75058 26.6017M36 11.1333L30.2494 14.2235M30.2494 14.2235V7.33333M30.2494 14.2235L36 17.4667M36 30.1333L30.2494 26.6017M30.2494 26.6017L36 22.5333M30.2494 26.6017V32.6667M4.26923 11.1333L9.57746 14.2235M9.57746 14.2235V7.33333M9.57746 14.2235L4.26923 17.4667M3 30.1333L8.75058 26.6017M8.75058 26.6017L3 22.5333M8.75058 26.6017V32.6667" stroke="black" stroke-width="3"/>
</svg>
