<svg width="40" height="40" viewBox="0 0 40 40" fill="none" xmlns="http://www.w3.org/2000/svg">
<path d="M2 3V8.33333M38 3V8.33333M38 8.33333V25.6667C38 29.1876 34.9735 30.5294 32.6667 30.8908M38 8.33333H32.6667M2 8.33333V25.6667C2 26.7419 2.86714 28.8577 6 30.196M2 8.33333H6M6 8.33333V30.196M6 8.33333H11.3333M6 30.196C6.40548 30.3692 6.84891 30.5293 7.33333 30.6725M11.3333 8.33333V31M11.3333 8.33333H16.6667M11.3333 31H8.66667C8.19104 30.9049 7.74723 30.7949 7.33333 30.6725M11.3333 31H16.6667M16.6667 8.33333V31M16.6667 8.33333H22M16.6667 31H22M22 8.33333V31M22 8.33333H27.3333M22 31H27.3333M27.3333 8.33333V31M27.3333 8.33333H32.6667M27.3333 31H31.3333C31.7218 31 32.1781 30.9674 32.6667 30.8908M32.6667 8.33333V30.8908M7.33333 36.3333V30.6725M32.6667 36.3333V30.8908" stroke="black" stroke-width="3"/>
</svg>
