<svg width="40" height="40" viewBox="0 0 40 40" fill="none" xmlns="http://www.w3.org/2000/svg">
<path d="M4 38V24.5328M4 24.5328V2.08744C6.99271 2.08744 12.6789 6.57651 11.4818 24.5328H4ZM20.4599 2.08744V24.5328M20.4599 24.5328C18.9636 24.5328 15.9709 26.0291 15.9709 32.0146C15.9709 33.5109 16.8687 36.5036 20.4599 36.5036C21.4575 36.5036 23.7519 35.6058 24.949 32.0146C24.949 29.5206 24.0512 24.5328 20.4599 24.5328ZM32.4308 38V21.5401M32.4308 2.08744C30.9344 2.08744 27.9417 4.18234 27.9417 12.5619C27.9417 16.5522 28.8395 23.9342 32.4308 21.5401M32.4308 2.08744V21.5401M32.4308 2.08744C33.9271 1.58866 36.9199 2.98526 36.9199 12.5619C36.9199 22.1386 33.9271 22.5376 32.4308 21.5401" stroke="black" stroke-width="3"/>
</svg>
