<svg width="40" height="40" viewBox="0 0 40 40" fill="none" xmlns="http://www.w3.org/2000/svg">
<g clip-path="url(#clip0_49_511)">
<path d="M16.9473 21.7314H4.18947C5.25262 18.5419 9.29261 12.163 16.9473 12.163C18.7369 12.163 20.3289 12.5116 21.7315 13.0867M16.9473 21.7314H29.7052C29.2767 20.4459 28.3647 18.6424 26.9274 16.9472M16.9473 21.7314V34.4892H26.5157M31.2999 34.4892H26.5157M1 34.4892H7.37893M7.37893 34.4892L1 28.1103M7.37893 34.4892V39.2734M7.37893 34.4892H26.5157M26.5157 34.4892V39.2734M21.7315 13.0867C22.2631 12.2472 23.7379 8.97356 26.9274 10.5683C29.2099 11.7096 29.7052 15.3524 26.9274 16.9472M21.7315 13.0867C23.9104 13.98 25.6321 15.4196 26.9274 16.9472" stroke="black" stroke-width="3"/>
<path d="M34.4894 4.18945L31.2999 7.37892" stroke="black" stroke-width="3"/>
<path d="M24.0045 0.999938L23.9689 5.51038" stroke="black" stroke-width="3"/>
<path d="M15.6638 5.30105L19.5516 7.58808" stroke="black" stroke-width="3"/>
<path d="M39 12.8397L34.4895 12.8077" stroke="black" stroke-width="3"/>
</g>
<defs>
<clipPath id="clip0_49_511">
<rect width="40" height="40" fill="white"/>
</clipPath>
</defs>
</svg>
