<svg width="40" height="40" viewBox="0 0 40 40" fill="none" xmlns="http://www.w3.org/2000/svg">
<path d="M2 9.5V25.25M2 34V25.25M2 25.25H10.75C11.3333 25.25 12.5 25.6 12.5 27C12.5 28.4 12.5 32.25 12.5 34" stroke="black" stroke-width="3"/>
<path d="M7.25 18.25H13.375M31.75 18.25H26.5M19.5 18.25V34M19.5 18.25H13.375M19.5 18.25H26.5M13.375 18.25C13.0833 15.9167 13.9 10.9 19.5 9.5M19.5 9.5V6M19.5 9.5C21.8333 10.0833 26.5 12.65 26.5 18.25M37 9.5V25.25M37 34V25.25M37 25.25H30C28.8333 25.25 26.5 25.6 26.5 27V34" stroke="black" stroke-width="3"/>
</svg>
