<svg width="40" height="40" viewBox="0 0 40 40" fill="none" xmlns="http://www.w3.org/2000/svg">
<path d="M14.8 28.4V17.6C17.6553 13.5211 20.3228 12.1862 22.6 12.3067M14.8 28.4V38H29.2V17.6C28.0498 15.2996 25.6824 12.4699 22.6 12.3067M14.8 28.4H10M10 28.4V34.4M10 28.4V16.4C10.8 13.6 13.84 7.75999 19.6 6.79999M19.6 6.79999L20.8 9.19999H22.6M19.6 6.79999C21.5604 3.53265 23.2613 3.78674 24.4 4.91292M25.6 6.79999C25.3446 6.16138 24.9341 5.4412 24.4 4.91292M25.6 6.79999L29.2 6.8M25.6 6.79999L24.4 9.19999H22.6M28 2L24.4 4.91292M22.6 9.19999V12.3067" stroke="black" stroke-width="3"/>
</svg>
