<svg width="40" height="40" viewBox="0 0 40 40" fill="none" xmlns="http://www.w3.org/2000/svg">
<path d="M8.75 22.4375V24.375" stroke="black" stroke-width="3"/>
<path d="M12.625 24.375H28.125" stroke="black" stroke-width="3"/>
<path d="M35.875 16.625H6.8125M35.875 16.625C37.425 16.625 37.8125 19.2083 37.8125 20.5V30.1875M35.875 16.625C35.875 15.5779 35.4329 14.2066 34.7727 12.75M6.8125 16.625C5.52083 16.625 2.9375 17.4 2.9375 20.5C2.9375 23.6 2.9375 28.25 2.9375 30.1875M6.8125 16.625C6.8125 15.8028 6.95207 14.4223 7.34968 12.75M2.9375 30.1875C2.75844 32.125 2.9375 36 4.875 36C7.98274 36 8.75 36 8.75 30.1875M2.9375 30.1875H8.75M37.8125 30.1875H32M37.8125 30.1875C37.8125 32.125 37.8125 36 35.875 36C32 36 32 36 32 30.1875M1 12.75H7.34968M7.34968 12.75C7.889 10.4817 8.90306 7.67666 10.6875 5H30.0625C31.3456 6.71075 33.4783 9.89427 34.7727 12.75M39.75 12.75H34.7727M8.75 30.1875H32" stroke="black" stroke-width="3"/>
<path d="M32 24.375V22.4375" stroke="black" stroke-width="3"/>
</svg>
