<svg width="40" height="40" viewBox="0 0 40 40" fill="none" xmlns="http://www.w3.org/2000/svg">
<path d="M37 14.8261L25.1739 3M37 14.8261C33.5507 15.3188 26.3565 16.0087 25.1739 14.8261C23.9913 13.6435 24.6812 6.44928 25.1739 3M37 14.8261C37 17.2912 37 21.4006 37 25.1739M25.1739 3H7.43478L3 7.43478V28.1304M37 25.1739C37 28.189 37 30.9895 37 32.5652C37 36.113 33.058 37 31.087 37C24.6812 37 10.9826 37 7.43478 37C3.88696 37 3 35.029 3 34.0435V28.1304M37 25.1739H7.43478M31.087 31.087H7.43478L3 28.1304" stroke="black" stroke-width="3.1875"/>
</svg>
