<svg width="40" height="40" viewBox="0 0 40 40" fill="none" xmlns="http://www.w3.org/2000/svg">
<path d="M14.6 10.3462V4H6.2V10.3462M14.6 10.3462L17.4 35.7308H2L6.2 10.3462M14.6 10.3462H6.2M24.4 12.8846V4H18.8V12.8846H24.4ZM24.4 12.8846L21.6 20.5V37M27.2 4H35.6L37 5.26923V9.07692M27.2 34.4615H35.6L37 33.1923V30.6538M27.2 30.6538H37M37 30.6538V25.5769M37 25.5769H27.2M37 25.5769V21.7692M37 21.7692H27.2M37 21.7692V16.6923M37 16.6923H27.2M37 16.6923V12.8846M37 12.8846H27.2M37 12.8846V9.07692M37 9.07692H27.2" stroke="black" stroke-width="3"/>
</svg>
