<svg width="40" height="40" viewBox="0 0 40 40" fill="none" xmlns="http://www.w3.org/2000/svg">
<path d="M13.6667 15.55C17.4667 6.31 18.4167 4 18.4167 4" stroke="black" stroke-width="3"/>
<path d="M20 15.55C23.8 6.31 24.75 4 24.75 4" stroke="black" stroke-width="3"/>
<path d="M26.3333 15.55C30.1333 6.31 31.0833 4 31.0833 4" stroke="black" stroke-width="3"/>
<path d="M26.3333 20.5C31.4 21.82 31.6111 26.55 31.0833 28.75L29.5 32.05H10.5L8.91666 28.75C7.64999 22.15 12.6111 20.5 15.25 20.5M26.3333 20.5H20.7917M26.3333 20.5L26.3333 25.45M15.25 20.5V25.45M15.25 20.5H20.7917M20.7917 20.5V25.45" stroke="black" stroke-width="3"/>
<path d="M1 32.05H5.75V37H34.25V32.05H39" stroke="black" stroke-width="3"/>
</svg>
