<svg width="40" height="40" viewBox="0 0 40 40" fill="none" xmlns="http://www.w3.org/2000/svg">
<path d="M33.9185 4H6.65765C4.36204 5.14783 3.7881 7.34783 3.78808 8.30435C2.1315 18.3478 3.56624 28.3913 3.78808 32.6957C3.97491 36.3206 7.13591 37 8.09243 37H32.4837C34.7794 37 36.3098 35.087 36.7881 34.1304C38.001 24.087 38.0009 12.6087 36.7881 8.30435C35.8542 4.98993 34.875 4 33.9185 4Z" stroke="black" stroke-width="3"/>
<path d="M10.4681 19.8187C11.5124 19.6098 13.2568 19.4804 14.9656 19.7882C16.6851 20.0979 18.1384 20.803 18.9693 22.0494C20.434 24.2465 22.8069 25.2153 24.9374 25.5991C26.4159 25.8654 27.8889 25.8727 29.1025 25.763C27.4491 28.9884 24.091 31.1957 20.2174 31.1957C14.7066 31.1957 10.2391 26.7282 10.2391 21.2174C10.2391 20.615 10.2925 20.0251 10.3948 19.4522L10.4681 19.8187ZM30.04 22.9826L29.9667 22.6161C28.9224 22.825 27.178 22.9544 25.4692 22.6466C23.7497 22.3369 22.2964 21.6318 21.4655 20.3853C20.0008 18.1883 17.6279 17.2195 15.4974 16.8357C14.0189 16.5694 12.5459 16.5621 11.3323 16.6718C12.9857 13.4464 16.3438 11.2391 20.2174 11.2391C25.7282 11.2391 30.1957 15.7066 30.1957 21.2174C30.1957 21.8198 30.1423 22.4097 30.04 22.9826Z" stroke="black" stroke-width="3"/>
<path d="M10.1739 8.30432V11.1739" stroke="black" stroke-width="3"/>
</svg>
