<svg width="40" height="40" viewBox="0 0 40 40" fill="none" xmlns="http://www.w3.org/2000/svg">
<path d="M11.6249 35.7917H30.8748M11.6249 35.7917C7.77496 35.7917 6.81247 32.5834 6.81247 30.9792C6.81247 29.1256 6.81247 24.9429 6.81247 21.3543M11.6249 35.7917V39M30.8748 35.7917C32.4789 35.7917 35.6873 34.8292 35.6873 30.9792C35.6873 27.1293 35.6873 21.889 35.6873 19.7501C35.6873 18.146 34.7248 14.9377 30.8748 14.9377L29.2706 14.9377M30.8748 35.7917V39M2 21.3543H6.81247M6.81247 21.3543C6.81247 20.8019 6.81247 20.2637 6.81247 19.7501C6.81247 15.9002 10.0208 14.9377 11.6249 14.9377H13.2291M13.2291 14.9377C11.9458 11.0877 11.6249 10.1252 11.6249 10.1252C9.48606 8.52105 6.81247 4.99191 13.2291 3.70859C19.6457 2.42527 27.6665 3.17387 30.8748 3.70859C33.0137 4.24331 36.0081 6.27524 30.8748 10.1252L29.2706 14.9377M13.2291 14.9377L29.2706 14.9377" stroke="black" stroke-width="3"/>
<path d="M11.6249 29.375V30.9791" stroke="black" stroke-width="3"/>
</svg>
