<svg width="40" height="40" viewBox="0 0 40 40" fill="none" xmlns="http://www.w3.org/2000/svg">
<path d="M19.1579 38.3684V23.2105M19.1579 13.1053H4C6.24561 9.73684 12.4211 3 19.1579 3C25.8947 3 32.0702 9.73684 34.3158 13.1053H19.1579ZM19.1579 13.1053V23.2105M19.1579 23.2105H9.05263H29.2632" stroke="black" stroke-width="3"/>
<path d="M35.9999 19.8421V29.1053M35.9999 38.3684V29.1053M35.9999 29.1053H27.5789C26.4561 28.8246 24.2104 28.9368 24.2104 31.6316C24.2104 34.3263 24.2104 37.2456 24.2104 38.3684" stroke="black" stroke-width="3"/>
<path d="M4 19.8421V29.1053M4 38.3684V29.1053M4 29.1053H12.4211C12.9825 29.386 14.1053 30.2842 14.1053 31.6316C14.1053 32.9789 14.1053 36.6842 14.1053 38.3684" stroke="black" stroke-width="3"/>
</svg>
