<svg width="40" height="40" viewBox="0 0 40 40" fill="none" xmlns="http://www.w3.org/2000/svg">
<path d="M20.0471 4V11.2727C18.1077 11.2727 12.7744 11.2727 6.95623 11.2727C2.88629 11.2727 1.90061 16.4923 2.00764 21.4545M20.0471 4H2.59259M20.0471 4C22.9561 4 29.6471 5.45455 33.138 11.2727C34.1077 12.2424 36.338 16.8 37.5016 27.2727H2.59259C2.30122 25.6702 2.05362 23.5861 2.00764 21.4545M2.00764 21.4545H36.0471" stroke="black" stroke-width="3"/>
<path d="M20.0471 34.5455C20.0471 35.7091 20.0471 36 20.0471 36" stroke="black" stroke-width="3"/>
<path d="M14.2289 34.5455C14.2289 35.7091 14.2289 36 14.2289 36" stroke="black" stroke-width="3"/>
<path d="M17.138 31.6364C17.138 32.8 17.138 33.0909 17.138 33.0909" stroke="black" stroke-width="3"/>
<path d="M22.9561 31.6364C22.9561 32.8 22.9561 33.0909 22.9561 33.0909" stroke="black" stroke-width="3"/>
<path d="M25.8652 34.5455C25.8652 35.7091 25.8652 36 25.8652 36" stroke="black" stroke-width="3"/>
</svg>
