<svg width="40" height="40" viewBox="0 0 40 40" fill="none" xmlns="http://www.w3.org/2000/svg">
<circle cx="21.1658" cy="14.3869" r="5.14963" stroke="black" stroke-width="2.7"/>
<path d="M20.4436 25.9418C17.5085 26.3 12.3779 21.3076 16.35 18.2L16.1105 17.75C13.944 19.0521 7.44649 17.7257 8.84229 12.8C10.5 6.95 15.703 8.94837 17.5085 11.3556C14.6197 7.02255 16.1105 4.99854 16.1105 4.99854C17.5549 2.83199 20.7102 0.300937 24.7767 3.55417C28.3876 6.44289 26.5822 8.97054 24.7767 10.776C30.554 7.02286 33.4429 12.4773 33.4429 14.3869C33.4429 19.9463 26.5822 19.9455 24.7767 18.14L26.2211 19.4422C26.7 23.15 24.7767 25.9418 20.4436 25.9418ZM20.4436 25.9418V32.5836M20.4437 38L20.4436 32.5836M20.4436 32.5836C20.4436 35.2918 11.4164 25.3618 6 30.7782M20.4436 32.5836C24.0545 29.5746 31.9985 25.0007 34.8872 30.7782" stroke="black" stroke-width="2.7"/>
</svg>
